<svg xmlns="http://www.w3.org/2000/svg" viewBox="0 0 956.31 477.93"><defs><style>.cls-1{fill:#4fac9c;}.cls-2{fill:#696969;}</style></defs><title>logo (colored)</title><g id="Layer_2" data-name="Layer 2"><g id="_ÎÓÈ_1" data-name="—ÎÓÈ_1"><path class="cls-1" d="M954.57,182a6.42,6.42,0,0,0-9.08-.29C927.94,198.14,902.9,210.47,875,216.4c-23.08,4.91-46.8,4.88-60.41-.07-9-3.27-13.37-10.66-13.44-22.61a65.26,65.26,0,0,1,3.16-19.33,6.43,6.43,0,0,0-10.6-6.7c-45.45,45.45-59.44,47.64-67.13,43.79-.8-.4-1.24-.77-1.29-1.11-.38-2.33,3.09-7.87,6.55-11.46,2.29-1.68,17-12,30.8-10a6.42,6.42,0,0,0,1.82-12.72c-18.5-2.64-36.28,9.48-40.13,12.32C684.14,205.26,603,218.84,597,219.82a151.84,151.84,0,0,0-20.25,2.36c-3.22-9-2.82-18.71-2.47-22.69,1.31-1.1,2.55-2.17,3.74-3.19,5.29-4.56,9.11-7.85,13.35-8.79A6.43,6.43,0,1,0,588.59,175c-7.39,1.64-12.75,6.26-19,11.6-5.76,5-12.28,10.57-22.51,16-12.76,6.75-58.27,23.41-101.91,39.1,2.71-58.22-3.22-77.87-23-79.67-16.06-1.47-28.63,13.17-31,16.18a368.74,368.74,0,0,0-32.38,35c-12.07,14.86-21.06,10.92-22.44,10.18-8.22-5.77-3.54-27.59,0-37.31a6.43,6.43,0,0,0-9.15-7.85c-.46.25-46.42,25.74-80.47,40.88-30.86,13.71-58.36,19-66.86,13-1.42-1-3-2.82-2.54-7.78,1.53-16.8-.08-26.77-5-31.39a9.52,9.52,0,0,0-4.62-2.44c-10.12-4.59-26.31.84-50.72,17-4.54,3-8.9,6.08-12.88,9,10.87-28.43,13.42-46.91,7.84-56.2a11.68,11.68,0,0,0-8.08-5.82c-15.68-3-37.16,8.56-65.65,35.24-3.41,3.19-6.7,6.4-9.82,9.52,4.32-7.58,7.78-12.92,7.86-13.05a6.42,6.42,0,1,0-10.76-7c-.82,1.24-19.94,30.71-25.28,52.08a6.43,6.43,0,0,0,11.21,5.64c23.67-28.88,68.66-73,89.56-69.86,1.06,1.92,5.43,14.43-18.13,67a6.43,6.43,0,0,0,10,7.53C123,215.82,155,197.88,162.62,202.24a5.9,5.9,0,0,0,1.12.5c.65,1.59,2,6.75.81,20.33-1,10.69,3.74,16.45,7.85,19.4,7.52,5.38,19.43,6.3,36.42,2.82,12.65-2.59,28-7.73,43.15-14.48,23.23-10.32,51.84-25.35,68.24-34.17-2.37,12.59-2.8,29.55,9.14,37.5l.11.08a23,23,0,0,0,13,2.92c6.42-.37,16.2-3.42,26.31-15.86a356.39,356.39,0,0,1,31.49-34,6.46,6.46,0,0,0,.78-.87c2.66-3.49,11.41-12.4,20-11.61,5.2.48,14.8,1.34,11.09,71.57l-11.63,4.17c-19.74,7.07-38.38,13.74-51.25,18.52-26.2,9.74-53.79,24.61-73.79,39.79-27.16,20.62-40.94,41.27-40.94,61.36,0,13.41,4.17,23.78,12.39,30.81,9.31,8,21.49,9.41,29.08,9.41a53.35,53.35,0,0,0,6.54-.38c68.94-.37,135.23-85.25,141.86-154.42,47-16.89,94.71-34.26,108.77-41.7,3-1.58,5.7-3.18,8.18-4.78a63.23,63.23,0,0,0,2.92,16.17c-32.36,10.24-36.9,30.7-37.11,31.8-.59,2.93-1.68,8.38,2.09,13,3.61,4.4,10.25,6.28,22.2,6.28,14.33,0,21.71-6.79,25.38-12.49,5.52-8.58,6.09-19.82,4.12-29.36a139,139,0,0,1,17.1-1.86,5.53,5.53,0,0,0,.7-.07c3.16-.51,69.18-11.29,114.09-26.17a15.89,15.89,0,0,0-.25,6c.52,3.19,2.37,7.62,8.23,10.55A24.68,24.68,0,0,0,732,225.67c13.5,0,30.41-10.57,56.25-34.81-.5,14.88,4.13,31.09,21.89,37.55,8.25,3,19.16,4.51,31.32,4.51A176.52,176.52,0,0,0,877.63,229c30.2-6.42,57.42-19.88,76.65-37.91A6.43,6.43,0,0,0,954.57,182ZM302.06,397.18a6.24,6.24,0,0,0-1,.07c-.16,0-16.17,2.31-25.89-6.05-5.2-4.48-7.84-11.55-7.84-21,0-19.75,19.5-38.7,35.86-51.12,19-14.46,45.4-28.66,70.49-38,12.8-4.75,31.4-11.42,51.1-18.47l6-2.16C421.55,322.84,361.3,397.18,302.06,397.18ZM566,256.9c-2.86,4.44-7.62,6.6-14.57,6.6-8.3,0-11.2-1.05-12-1.48a15.5,15.5,0,0,1,.35-2.4c1-4.9,8.13-15.71,28.67-22.13C569.68,244.23,569.23,251.87,566,256.9Z"/><path class="cls-1" d="M403.53,115.61c9.29,9.43,21,14.21,34.78,14.21,28.76,0,38.53-8.62,40.7-11,.32-.21.81-.54,1.41-1,1.14.81,1.85,1.25,1.9,1.28a3.15,3.15,0,0,0,.76.32c3.13,3,13.48,10.41,40.08,10.41,13.79,0,25.5-4.78,34.79-14.21,10.2-10.36,17.29-26,21.07-46.41a153.56,153.56,0,0,0,2.63-27.47,3.23,3.23,0,0,0-2-2.95,108.11,108.11,0,0,0-29.09-5.93c.46,1.89,1,4.19,1.39,6.63a110.06,110.06,0,0,1,23.29,4.57c-.23,9.55-2.36,47.28-21.83,67.05-8,8.16-18.2,12.29-30.21,12.29-15.63,0-24.95-2.72-30.18-5.18a98.94,98.94,0,0,0,19.07-5.84c19.28-8.2,31.54-21.7,35.46-39a81,81,0,0,0,1.41-27.64,1.75,1.75,0,0,1-.14-.51c-.08-.87-.18-1.76-.3-2.65-.18-1.13-.38-2.25-.6-3.35h0c-.46-2.48-1-4.8-1.45-6.55h-.19A88.62,88.62,0,0,0,530.09,1.1a3.26,3.26,0,0,0-3-1,123.74,123.74,0,0,0-29.94,10.58,98.84,98.84,0,0,0-13.56,8.23c1.54,1.22,3.28,2.68,5,4.33C503.78,12.7,520.83,8.08,526.39,6.78a86.35,86.35,0,0,1,13.08,25.8,105.08,105.08,0,0,0-24.85,3.52A54.58,54.58,0,0,0,498.82,43a65.2,65.2,0,0,0-13.43-17.49l0,0a86.34,86.34,0,0,0-9.29-7.34,2,2,0,0,1-.42-.39,101,101,0,0,0-12-7.14A123.74,123.74,0,0,0,433.76.05a3.27,3.27,0,0,0-3,1.05,88.08,88.08,0,0,0-14.88,27.31c1.76,0,4.11,0,6.92.09A86.53,86.53,0,0,1,434.44,6.78c6,1.4,25.12,6.59,41,18.75a67,67,0,0,0-11.35,13.84A50.67,50.67,0,0,1,469.38,43a60.1,60.1,0,0,1,11-13.29A58.41,58.41,0,0,1,493.63,47a46.23,46.23,0,0,0-12.89,19.12A46.53,46.53,0,0,0,469.91,48.9l-.4-.38c-.62-.6-1.26-1.2-1.93-1.78A49.15,49.15,0,0,0,462,42.61a55.28,55.28,0,0,0-15.18-6.51,105.43,105.43,0,0,0-25.47-3.54s0-.08,0-.12c-5.12,0-8.53.36-9,.32a109,109,0,0,0-30.54,6,3.21,3.21,0,0,0-2,2.95,152.47,152.47,0,0,0,2.63,27.47C386.23,89.64,393.32,105.25,403.53,115.61ZM463.92,55.5c.25-.92.55-1.82.86-2.71,11.57,10.88,12.7,25.36,12.76,29.86,0,.52,0,.93,0,1.22a.92.92,0,0,0,0,.15,3.18,3.18,0,0,0,.65,2.09l0,0a3,3,0,0,0,.38.41l.06,0a2.1,2.1,0,0,0,.41.31l.1.06a3.36,3.36,0,0,0,.43.2l.16.06a1.89,1.89,0,0,0,.41.1l.25,0a.76.76,0,0,0,.16,0h.38l.17,0,.23,0,.43-.11.13,0a2.77,2.77,0,0,0,.46-.22l.06,0a2.89,2.89,0,0,0,.45-.33l0,0a3.38,3.38,0,0,0,.4-.44h0A3.14,3.14,0,0,0,484,84v-.17c0-.22,0-.54,0-.91a46.07,46.07,0,0,1,3.38-16.31,40.17,40.17,0,0,1,4.56-8.29A1.46,1.46,0,0,1,492,58a32.62,32.62,0,0,1,10.23-9.58,48.64,48.64,0,0,1,14-6.14A98.49,98.49,0,0,1,541.19,39a74.55,74.55,0,0,1,0,32.9c-7.2,31.84-44.22,39.36-54.73,40.87,10-9.38,25-29.15,16.59-59-.1-.36-.22-.71-.33-1.06a29,29,0,0,0-5.36,4.72c6.93,27.81-8.44,45.15-17,52.33C471.67,102.4,455.77,84.44,463.92,55.5ZM419.66,39a98.66,98.66,0,0,1,25.53,3.29,48.39,48.39,0,0,1,14.29,6.3c-.66,1.69-1.26,3.4-1.75,5.15-8.41,29.88,6.56,49.66,16.6,59-10.51-1.49-47.53-9-54.74-40.87A74.53,74.53,0,0,1,419.66,39Zm-6.71.2a81.08,81.08,0,0,0,.37,34.11c3.92,17.34,16.18,30.84,35.46,39a99.35,99.35,0,0,0,19.52,5.93c-5.28,2.44-14.55,5.09-30,5.09-12,0-22.16-4.13-30.19-12.28-19.46-19.74-21.61-57.51-21.84-67.06A111.23,111.23,0,0,1,413,39.22Z"/><path class="cls-2" d="M481.27,327.86c1.18,0,1.77-.53,1.77-1.58,0-.87-.53-1.33-1.61-1.37.05,0-.05,0-.28.07l-.59,0a3.39,3.39,0,0,1-.5.07c-.11,0-.2-.25-.27-.74a3.39,3.39,0,0,1,0-.54v-1l0-2.38v-3.08a17.06,17.06,0,0,0-.1-2,5.91,5.91,0,0,0-.33-1.44,5.6,5.6,0,0,0-2.45-2.65,7.5,7.5,0,0,0-3.48-.81,7,7,0,0,0-2.84.54,7.66,7.66,0,0,0-2.19,1.47,4.75,4.75,0,0,0-1.91-1.54,6.91,6.91,0,0,0-2.68-.47,6.63,6.63,0,0,0-2.33.36,5.29,5.29,0,0,0-1.86,1.22,1.2,1.2,0,0,0-1.34-1l-.8.1h-.34a.7.7,0,0,1-.23,0l-.5,0-.57-.05-.51-.05-.43,0c-1.21,0-1.81.51-1.81,1.51s.57,1.48,1.71,1.48H455a.86.86,0,0,0,.24,0h0s0,0,.08,0l.54-.07.33-.1c.13,0,.21.11.24.34a10.29,10.29,0,0,1,.11,1.14c0,.53.05,1.23.05,2.11v4.85c0,.32,0,.62,0,.91s0,.59,0,.9c0,.63-.13,1-.31,1.11l-.93-.17-.21,0h-.23q-1.74,0-1.74,1.41c0,1,.6,1.54,1.81,1.54.11,0,.3,0,.58,0l1.13-.1c.62-.06,1.06-.1,1.3-.1a7.83,7.83,0,0,1,.81,0c.29,0,.61,0,1,.1a14,14,0,0,0,1.41.1c1.31,0,2-.49,2-1.48s-.59-1.47-1.77-1.47H461a.88.88,0,0,1-.24,0l-.54.1s-.1-.22-.16-.67a11.68,11.68,0,0,1,0-1.44v-4.22q0-3,.84-4a3.07,3.07,0,0,1,2.75-1.34,3.73,3.73,0,0,1,1.34.21,1.82,1.82,0,0,1,.87.76,4.1,4.1,0,0,1,.49,1.39,12.63,12.63,0,0,1,.15,2.13v2.78c0,.09,0,.22,0,.4v.69q0,.35,0,.72c0,.24,0,.49,0,.73s0,.49,0,.74c0,.78-.1,1.17-.24,1.17h-.2l-.33,0a2.6,2.6,0,0,0-.67-.07c-1,0-1.51.47-1.51,1.41s.61,1.54,1.84,1.54a5.69,5.69,0,0,0,.7,0,6.26,6.26,0,0,0,.74-.1l.76-.1.65,0,.52,0,.79.1c.31,0,.59.08.85.1a6,6,0,0,0,.69,0c1.34,0,2-.51,2-1.51a1.37,1.37,0,0,0-.46-1.06,1.62,1.62,0,0,0-1.12-.42.7.7,0,0,1-.22,0,3.14,3.14,0,0,0-.41.07l-.31,0h-.16c-.12,0-.19-.12-.24-.37a12.34,12.34,0,0,1-.1-1.32c0-.62,0-1.39,0-2.33v-2.25a9.22,9.22,0,0,1,.63-4.08,2.87,2.87,0,0,1,2.68-1.34,3.17,3.17,0,0,1,1.81.5,2.35,2.35,0,0,1,1.06,1.39,11.2,11.2,0,0,1,.28,3v2.07c0,.32,0,.64,0,1s0,.66,0,1a15.1,15.1,0,0,1-.17,2.58c0,.13-.08.2-.16.2a1.77,1.77,0,0,1-.37,0l-.29,0-.22,0H475a.2.2,0,0,0-.11,0c-1,0-1.54.46-1.54,1.37s.62,1.58,1.87,1.58c.18,0,.41,0,.71,0s.59-.05.9-.1.6-.07.87-.08l.64,0c.29,0,.76,0,1.41.1.33,0,.63.08.88.1A5.76,5.76,0,0,0,481.27,327.86Z"/><path class="cls-2" d="M493.36,328.26a8.23,8.23,0,0,0,5.06-1.68,5,5,0,0,0,2.35-4c0-1.11-.58-1.67-1.75-1.67a1.5,1.5,0,0,0-.95.3,1.93,1.93,0,0,0-.59.8l-.3.91a3,3,0,0,1-1.31,1.71,4.09,4.09,0,0,1-5.36-.77,5.17,5.17,0,0,1-1.3-3.66s0,0,.13,0h10.09a6.41,6.41,0,0,0,.88,0,.7.7,0,0,0,.49-.28,1.33,1.33,0,0,0,.2-.67c0-.29,0-.7,0-1.21a7.55,7.55,0,0,0-2.07-5.4,7.29,7.29,0,0,0-2.35-1.57,7.73,7.73,0,0,0-3-.54,7.39,7.39,0,0,0-5.86,2.58,9.82,9.82,0,0,0-2.22,6.57,9.27,9.27,0,0,0,2.08,6.3A7.27,7.27,0,0,0,493.36,328.26Zm-2.58-13.64a4.43,4.43,0,0,1,2.88-1.2,3.73,3.73,0,0,1,2.62,1.1,3.61,3.61,0,0,1,1.1,2.62h-7.87A3.4,3.4,0,0,1,490.78,314.62Z"/><path class="cls-2" d="M511.89,328.26a8.23,8.23,0,0,0,5.06-1.68,5,5,0,0,0,2.35-4c0-1.11-.59-1.67-1.75-1.67a1.48,1.48,0,0,0-.95.3,1.93,1.93,0,0,0-.59.8l-.3.91a3.07,3.07,0,0,1-1.31,1.71,4,4,0,0,1-2.24.67,4,4,0,0,1-3.12-1.44,5.17,5.17,0,0,1-1.3-3.66s0,0,.13,0H518a6.58,6.58,0,0,0,.89,0,.72.72,0,0,0,.49-.28,1.33,1.33,0,0,0,.2-.67c0-.29,0-.7,0-1.21a7.55,7.55,0,0,0-2.07-5.4,7.29,7.29,0,0,0-2.35-1.57,7.73,7.73,0,0,0-3-.54,7.42,7.42,0,0,0-5.87,2.58,9.87,9.87,0,0,0-2.21,6.57,9.27,9.27,0,0,0,2.08,6.3A7.27,7.27,0,0,0,511.89,328.26Zm-2.58-13.64a4.43,4.43,0,0,1,2.88-1.2,3.73,3.73,0,0,1,2.62,1.1,3.61,3.61,0,0,1,1.1,2.62H508A3.4,3.4,0,0,1,509.31,314.62Z"/><path class="cls-2" d="M531.09,318.64c0-1-.6-1.54-1.81-1.54h-5c-1.23,0-1.84.53-1.84,1.58s.61,1.57,1.84,1.57h5C530.49,320.25,531.09,319.72,531.09,318.64Z"/><path class="cls-2" d="M542.21,317.81l-.92-.14-.92-.13a4.17,4.17,0,0,1-1.68-.69,1.54,1.54,0,0,1-.63-1.29,1.83,1.83,0,0,1,.84-1.54,3.38,3.38,0,0,1,2-.6,4,4,0,0,1,2.13.55,1.66,1.66,0,0,1,.92,1.32l0,1.07a1.39,1.39,0,0,0,1.61,1.45c1,0,1.57-.56,1.57-1.68a5,5,0,0,0,0-.52,6.52,6.52,0,0,0-.1-.65,6.12,6.12,0,0,1-.1-1q0-.27,0-.57c0-.2.06-.4.1-.6s0-.23,0-.36,0-.22,0-.31a1.42,1.42,0,0,1,0-.24.3.3,0,0,0,0-.13c0-1-.52-1.48-1.57-1.48a1.37,1.37,0,0,0-1.48.94,6.14,6.14,0,0,0-3.11-.74,8.33,8.33,0,0,0-2.68.41,6.34,6.34,0,0,0-2.08,1.1,4.9,4.9,0,0,0-1.84,3.92,4.48,4.48,0,0,0,.47,2.18,3.59,3.59,0,0,0,1.37,1.42,7.59,7.59,0,0,0,2.24.87,24.44,24.44,0,0,0,3.09.52c2,.21,2.94.9,2.94,2.08a2,2,0,0,1-.85,1.69,3.43,3.43,0,0,1-2.16.66,6.14,6.14,0,0,1-3.2-.74,2.26,2.26,0,0,1-1.26-1.91,5,5,0,0,0-.27-1.84c-.15-.38-.59-.57-1.3-.57a1.38,1.38,0,0,0-1.58,1.54,4.43,4.43,0,0,0,.1.9c0,.25.09.51.12.79a7.45,7.45,0,0,1,0,.79c0,.31,0,.55,0,.72a3.54,3.54,0,0,1,0,.48c0,.16-.05.34-.08.54l-.12.81a1.52,1.52,0,0,0,1.71,1.74,1.4,1.4,0,0,0,1.61-1.28,8.16,8.16,0,0,0,4,1,7.85,7.85,0,0,0,4.89-1.47,5.12,5.12,0,0,0,2-4.09Q548.11,318.61,542.21,317.81Z"/><path class="cls-2" d="M557.05,328.26a6.59,6.59,0,0,0,4.93-1.81,3.41,3.41,0,0,0,3.35,1.67q3.72,0,3.79-3.48l0-1.81v-.17c0-1.29-.54-1.94-1.61-1.94s-1.51.48-1.51,1.44v1.58c0,1.05-.19,1.57-.57,1.57s-.42-.24-.53-.74a4.85,4.85,0,0,1,0-.62c0-.3,0-.67,0-1.12v-6.4q0-6-6.33-6a7.53,7.53,0,0,0-4.59,1.38,4,4,0,0,0-2,3.38,2.36,2.36,0,0,0,.7,1.73,2.44,2.44,0,0,0,1.78.68,2.27,2.27,0,0,0,1.56-.53,1.76,1.76,0,0,0,.62-1.38,1.87,1.87,0,0,0-.71-1.44h0a1.16,1.16,0,0,1,.24-.26v0a4.09,4.09,0,0,1,2.38-.74,3.16,3.16,0,0,1,2.12.64,2.12,2.12,0,0,1,.76,1.71,1.75,1.75,0,0,1-.57,1.51,9.48,9.48,0,0,1-3.25.7,22.35,22.35,0,0,0-2.58.4,7,7,0,0,0-1.58.67,5.24,5.24,0,0,0-1.86,1.76,4.93,4.93,0,0,0,1,6.2A6.84,6.84,0,0,0,557.05,328.26Zm.61-7.37a13.34,13.34,0,0,0,2.84-.47l.42-.15.39-.15,0,1.27a4,4,0,0,1-1.09,2.85,4.07,4.07,0,0,1-3,1,3.07,3.07,0,0,1-2-.59,1.91,1.91,0,0,1-.72-1.56C554.51,321.84,555.56,321.09,557.66,320.89Z"/><path class="cls-2" d="M612.49,326.79a5.13,5.13,0,0,0,2-4.09q0-4.09-5.89-4.89l-.93-.14-.92-.13a4.07,4.07,0,0,1-1.67-.69,1.52,1.52,0,0,1-.64-1.29,1.83,1.83,0,0,1,.84-1.54,3.42,3.42,0,0,1,2-.6,3.93,3.93,0,0,1,2.13.55,1.66,1.66,0,0,1,.92,1.32l0,1.07a1.39,1.39,0,0,0,1.6,1.45c1,0,1.58-.56,1.58-1.68a3.28,3.28,0,0,0,0-.52,6.52,6.52,0,0,0-.1-.65,7.35,7.35,0,0,1-.1-1,3.82,3.82,0,0,1,0-.57,4.17,4.17,0,0,1,.1-.6c0-.11,0-.23,0-.36s0-.22,0-.31a1.17,1.17,0,0,1,0-.24.57.57,0,0,0,0-.13c0-1-.52-1.48-1.57-1.48a1.37,1.37,0,0,0-1.47.94,6.16,6.16,0,0,0-3.12-.74,8.37,8.37,0,0,0-2.68.41,6.34,6.34,0,0,0-2.08,1.1,4.9,4.9,0,0,0-1.84,3.92,4.48,4.48,0,0,0,.47,2.18,3.66,3.66,0,0,0,1.37,1.42,7.55,7.55,0,0,0,2.25.87,24.26,24.26,0,0,0,3.08.52c2,.21,3,.9,3,2.08a2,2,0,0,1-.86,1.69,3.43,3.43,0,0,1-2.16.66,6.16,6.16,0,0,1-3.2-.74,2.27,2.27,0,0,1-1.25-1.91,5.53,5.53,0,0,0-.27-1.84c-.16-.38-.59-.57-1.31-.57a1.37,1.37,0,0,0-1.57,1.54,3.82,3.82,0,0,0,.1.9c0,.25.08.51.11.79a5.49,5.49,0,0,1,0,.79c0,.31,0,.55,0,.72s0,.33,0,.48-.05.34-.09.54-.07.47-.11.81a1.52,1.52,0,0,0,1.71,1.74,1.39,1.39,0,0,0,1.6-1.28,8.16,8.16,0,0,0,4,1A7.9,7.9,0,0,0,612.49,326.79Z"/><path class="cls-2" d="M639.19,317.07c.54-2.15,1-3.22,1.27-3.22l.19,0,.28.05a2.41,2.41,0,0,0,.64.07c1.07,0,1.61-.51,1.61-1.51s-.64-1.51-1.91-1.51H641a.53.53,0,0,0-.2,0l-1,.14a12,12,0,0,1-1.57.1l-.91,0-.63-.05-.64-.08-.6-.09a1.39,1.39,0,0,0-.3,0h-.27c-1.41,0-2.11.51-2.11,1.54s.57,1.51,1.7,1.51a4.49,4.49,0,0,0,.94-.1,2.72,2.72,0,0,1,.46-.1l.28,0c.11,0,.17.15.17.44a7.56,7.56,0,0,1-.2,1.54c-.29,1.23-.58,2.44-.87,3.64s-.6,2.4-.91,3.63l-1.87-8.81a6.83,6.83,0,0,0-1-2.56,2.21,2.21,0,0,0-1.82-.72,3.22,3.22,0,0,0-1,.15,1.78,1.78,0,0,0-.76.53,3.66,3.66,0,0,0-.55,1,12.17,12.17,0,0,0-.43,1.57c-.34,1.5-.66,3-1,4.46s-.63,2.95-1,4.42l-1.81-7.34a4.66,4.66,0,0,1-.13-.73c0-.25,0-.5,0-.74s.08-.51.26-.51a2.34,2.34,0,0,1,.74.14.39.39,0,0,1,.15,0h.15a1.36,1.36,0,0,0,.3,0h.24c1.16,0,1.74-.51,1.74-1.51s-.65-1.51-1.94-1.51h-.34a3.1,3.1,0,0,0-.63.07l-.74.1c-.38,0-.73.07-1.06.08l-.92,0h-.58a3.54,3.54,0,0,1-.52,0l-1.18-.17a.4.4,0,0,0-.26-.07H618c-1.32,0-2,.51-2,1.54s.53,1.48,1.58,1.48h.22a.87.87,0,0,0,.25,0h.17a.65.65,0,0,1,.2,0l.43-.1c.07,0,.14.07.2.22a3.66,3.66,0,0,1,.2.48c.52,1.9,1,3.81,1.53,5.71s1,3.82,1.52,5.72c.43,1.52,1.25,2.28,2.48,2.28a2.34,2.34,0,0,0,1.83-.74A6.08,6.08,0,0,0,627.7,325l1.91-8.71c.2.91.37,1.72.52,2.43s.28,1.38.41,2,.28,1.34.42,2,.31,1.48.49,2.38a4.82,4.82,0,0,0,1,2.24,2.49,2.49,0,0,0,3.48.12,5.41,5.41,0,0,0,1.08-2.36v0Z"/><path class="cls-2" d="M652.56,328.26a8.25,8.25,0,0,0,5.06-1.68,5,5,0,0,0,2.34-4c0-1.11-.58-1.67-1.74-1.67a1.48,1.48,0,0,0-1,.3,1.85,1.85,0,0,0-.59.8l-.3.91a3.07,3.07,0,0,1-1.31,1.71,4,4,0,0,1-2.24.67,3.94,3.94,0,0,1-3.12-1.44,5.18,5.18,0,0,1-1.31-3.66s.05,0,.14,0h10.08a6.58,6.58,0,0,0,.89,0,.74.74,0,0,0,.49-.28,1.44,1.44,0,0,0,.2-.67c0-.29,0-.7,0-1.21a7.51,7.51,0,0,0-2.08-5.4,7.14,7.14,0,0,0-2.34-1.57,7.76,7.76,0,0,0-3-.54A7.41,7.41,0,0,0,647,313a9.87,9.87,0,0,0-2.21,6.57,9.23,9.23,0,0,0,2.08,6.3A7.25,7.25,0,0,0,652.56,328.26ZM650,314.62a4.43,4.43,0,0,1,2.88-1.2,3.69,3.69,0,0,1,2.61,1.1,3.58,3.58,0,0,1,1.11,2.62H648.7A3.41,3.41,0,0,1,650,314.62Z"/><path class="cls-2" d="M677.55,327.76h-.06a1,1,0,0,1,.26,0H678l.07,0a2.13,2.13,0,0,1,.37,0,1.92,1.92,0,0,0,.32,0l.28,0,.55,0,.46,0c1.31,0,2-.52,2-1.54s-.57-1.48-1.71-1.48h-.21a.54.54,0,0,0-.22,0l-.17,0-.2,0-.25,0-.29,0c-.15,0-.23-.07-.23-.21a3.23,3.23,0,0,1-.1-.8c0-.4,0-1-.07-1.67l-.07-5.3v-3.84c0-.27,0-.59,0-1,0-.09,0-.2,0-.34a2.3,2.3,0,0,0,0-.36c.07-1.48.1-2.3.1-2.48s0-.31,0-.46,0-.27,0-.38a3.11,3.11,0,0,1,0-.67V307c0-1.16-.48-1.75-1.44-1.75l-.42,0-.49,0-.45.05-.28,0-1-.1-.2,0-.2,0a1.87,1.87,0,0,0-.34,0h-.23c-1.43,0-2.15.5-2.15,1.51s.59,1.47,1.75,1.47h.38a1.43,1.43,0,0,0,.42-.09h.32l.39-.05a1,1,0,0,1,.26.56,2.92,2.92,0,0,1,0,.52c0,.24,0,.56,0,1v1.77a6.5,6.5,0,0,0-1.86-1.05,6.66,6.66,0,0,0-2.33-.39,6.89,6.89,0,0,0-5.56,2.48,8.57,8.57,0,0,0-1.52,2.82,11.1,11.1,0,0,0-.56,3.58,9.55,9.55,0,0,0,2.11,6.44,6.85,6.85,0,0,0,5.6,2.51,6.5,6.5,0,0,0,4.39-1.44,1.26,1.26,0,0,0,1.34,1A3.65,3.65,0,0,0,677.55,327.76ZM675,320.84c0,.43-.06.83-.1,1.19a3.51,3.51,0,0,1-3.65,3.25,3.71,3.71,0,0,1-3.17-1.59,7.44,7.44,0,0,1-1.15-4.44,7.27,7.27,0,0,1,1.1-4.28,3.58,3.58,0,0,1,3.08-1.55,4.13,4.13,0,0,1,2.58.93,3.45,3.45,0,0,1,1.18,2.25c0,.25.08.6.11,1s.05,1,.05,1.73S675.06,320.4,675,320.84Z"/><path class="cls-2" d="M688.14,310.2a2.33,2.33,0,0,0,1.66-.64,2,2,0,0,0,.69-1.57,2,2,0,0,0-.69-1.56,2.41,2.41,0,0,0-1.66-.62,2.34,2.34,0,0,0-1.64.62,2,2,0,0,0-.67,1.56,2.06,2.06,0,0,0,.67,1.57A2.27,2.27,0,0,0,688.14,310.2Z"/><path class="cls-2" d="M693.15,327.42a1.34,1.34,0,0,0,.55-1.1c0-1-.58-1.48-1.74-1.48a2.06,2.06,0,0,0-.39,0l-.25.07,0,0-.51.1-.16,0c-.14,0-.24-.33-.3-1a2.9,2.9,0,0,1,0-.62v-6.67c0-.44,0-.88,0-1.32,0-.18,0-.35,0-.52s0-.33,0-.49a7,7,0,0,1,0-.94v-.11a.69.69,0,0,1,0-.22v-.47q0-1.68-1.44-1.68l-.88.1c-.13,0-.27,0-.42.06h-.28l-.42,0-.79-.1a1.11,1.11,0,0,0-.33,0h-.6c-1.3,0-2,.51-2,1.51S684,314,685.09,314l.35,0a1.41,1.41,0,0,0,.39-.08l.4-.11.24,0c.2,0,.33.53.4,1.58v8.07c-.07,1.07-.19,1.61-.37,1.61h-.2a1.28,1.28,0,0,1-.37-.07l-.52-.07-.39,0c-1.09,0-1.64.49-1.64,1.48s.61,1.54,1.81,1.54c.18,0,.41,0,.69-.05l1-.12c.34,0,.65-.08,1-.1l.82,0a3.77,3.77,0,0,1,.6.05l.87.11c.36,0,.67.08.94.1a6,6,0,0,0,.67,0A2.18,2.18,0,0,0,693.15,327.42Z"/><path class="cls-2" d="M709.75,322.7c0-2.73-2-4.36-5.9-4.89l-.92-.14-.92-.13a4.07,4.07,0,0,1-1.67-.69,1.52,1.52,0,0,1-.64-1.29,1.83,1.83,0,0,1,.84-1.54,3.42,3.42,0,0,1,2-.6,3.93,3.93,0,0,1,2.13.55,1.66,1.66,0,0,1,.92,1.32l0,1.07a1.39,1.39,0,0,0,1.61,1.45c1.05,0,1.58-.56,1.58-1.68a3.28,3.28,0,0,0,0-.52,6.52,6.52,0,0,0-.1-.65,7.35,7.35,0,0,1-.1-1,3.82,3.82,0,0,1,0-.57,4.17,4.17,0,0,1,.1-.6c0-.11,0-.23,0-.36s0-.22,0-.31a1.17,1.17,0,0,1,0-.24.57.57,0,0,0,0-.13c0-1-.52-1.48-1.57-1.48a1.37,1.37,0,0,0-1.47.94,6.16,6.16,0,0,0-3.12-.74,8.37,8.37,0,0,0-2.68.41,6.34,6.34,0,0,0-2.08,1.1,4.9,4.9,0,0,0-1.84,3.92,4.48,4.48,0,0,0,.47,2.18,3.66,3.66,0,0,0,1.37,1.42,7.55,7.55,0,0,0,2.25.87,24.26,24.26,0,0,0,3.08.52c2,.21,2.95.9,2.95,2.08a2,2,0,0,1-.86,1.69,3.43,3.43,0,0,1-2.16.66,6.16,6.16,0,0,1-3.2-.74,2.27,2.27,0,0,1-1.25-1.91,5.53,5.53,0,0,0-.27-1.84c-.16-.38-.6-.57-1.31-.57a1.38,1.38,0,0,0-1.58,1.54,3.82,3.82,0,0,0,.11.9c0,.25.08.51.11.79a5.49,5.49,0,0,1,0,.79c0,.31,0,.55,0,.72s0,.33,0,.48,0,.34-.09.54l-.12.81a1.52,1.52,0,0,0,1.71,1.74,1.4,1.4,0,0,0,1.61-1.28,8.16,8.16,0,0,0,4,1,7.85,7.85,0,0,0,4.89-1.47A5.12,5.12,0,0,0,709.75,322.7Z"/><path class="cls-2" d="M713.47,308.22h.44a1.49,1.49,0,0,0,.43-.06,1.43,1.43,0,0,1,.32-.05.78.78,0,0,0,.22-.05q.2.06.3.87a52.36,52.36,0,0,1,.2,5.93c0,.93,0,1.88,0,2.84s0,1.91,0,2.85a31.69,31.69,0,0,1-.24,3.89c0,.38-.05.57-.1.57h-.23a1.64,1.64,0,0,1-.44-.07h0a3.32,3.32,0,0,0-.73-.07c-1.16,0-1.75.46-1.75,1.38s.62,1.61,1.85,1.61c.11,0,.3,0,.58,0l1.09-.1c.63-.06,1.11-.1,1.44-.1s.57,0,.91,0,.69,0,1.07.1c.6.06,1.07.1,1.41.1,1.29,0,1.94-.53,1.94-1.58s-.52-1.41-1.57-1.41l-.36,0a1.12,1.12,0,0,0-.38.09l-.4.06a1,1,0,0,1-.24,0c-.2,0-.33-.38-.4-1.14a4.19,4.19,0,0,1,0-.66v-1.92a2.21,2.21,0,0,0,0-.39v-.32c0-.38,0-.76,0-1.14s0-.75,0-1.13a7.33,7.33,0,0,1,.74-3.56,3.59,3.59,0,0,1,3.22-1.5,2.81,2.81,0,0,1,2.75,1.44,9.94,9.94,0,0,1,.57,4.12v1.71c0,.18,0,.4,0,.67s0,.49,0,.67c0,.35,0,.67,0,.94v.56c-.05,1.08-.19,1.61-.44,1.61h-.2l-.17,0a3.08,3.08,0,0,0-1-.2,1.73,1.73,0,0,0-1.16.42,1.28,1.28,0,0,0-.48,1,1.48,1.48,0,0,0,.53,1.17,2,2,0,0,0,1.34.47,14.48,14.48,0,0,0,1.71-.2,4.15,4.15,0,0,1,.55-.05l.66,0c.24,0,.55,0,.9.05l1.21.12c.54.06,1,.1,1.24.1,1.38,0,2.08-.51,2.08-1.51s-.57-1.48-1.71-1.48h-.34a1.22,1.22,0,0,0-.33.07,1,1,0,0,1-.34.07h-.23c-.14,0-.24-.36-.3-1.07a2.14,2.14,0,0,1,0-.61v-6.8a6.28,6.28,0,0,0-.47-2.49,5.53,5.53,0,0,0-1.32-1.93,5.85,5.85,0,0,0-2.06-1.24,8,8,0,0,0-2.71-.44,7.5,7.5,0,0,0-2.27.32,6.91,6.91,0,0,0-2,1.09l.13-5v-.07c0-1-.42-1.51-1.27-1.51l-.35,0-.35,0-.49.05-.32,0-.67,0-.6-.05h0c-.6-.07-1-.1-1.14-.1a2,2,0,0,0-1.3.44,1.36,1.36,0,0,0-.54,1.1C711.86,307.74,712.4,308.22,713.47,308.22Z"/><path class="cls-2" d="M744.19,314.05h.37a1.39,1.39,0,0,0,.4-.09h0a2.37,2.37,0,0,1,.37-.05.62.62,0,0,0,.27,0,2,2,0,0,1,.5.91l4.56,11.72a2.4,2.4,0,0,0,2.38,1.75,2.43,2.43,0,0,0,2.44-1.75q1.11-2.85,2.25-5.71c.76-1.91,1.5-3.81,2.24-5.71.34-.83.55-1.24.64-1.24a4.41,4.41,0,0,1,.53.1.44.44,0,0,0,.27.07h.37c1.12,0,1.68-.51,1.68-1.51s-.64-1.48-1.91-1.48c-.29,0-.74,0-1.34.1l-1.26.11-.79,0h-.42a2.37,2.37,0,0,1-.41,0L756,311a.63.63,0,0,1-.23,0h-.34c-1.36,0-2,.51-2,1.54s.53,1.51,1.58,1.51a3.2,3.2,0,0,0,.83-.1,3.1,3.1,0,0,1,.42-.1l.22,0c.09,0,.13.09.13.27a1.61,1.61,0,0,1-.06.34c-.05.15-.12.37-.2.64l-3.12,8.54L750,315v0l-.2-.71a1.52,1.52,0,0,1-.1-.5,4.46,4.46,0,0,0,.6.14l0,0a2.08,2.08,0,0,0,.7.07c1.16,0,1.74-.49,1.74-1.48s-.65-1.5-1.94-1.5h-.27l-.27,0-1,.1a5.45,5.45,0,0,1-.87.07H747l-.65,0-1.27-.14a.42.42,0,0,0-.22-.05l-.25,0c-1.34,0-2,.52-2,1.57S743.12,314.05,744.19,314.05Z"/><path class="cls-2" d="M772.47,328.26a8.21,8.21,0,0,0,5.06-1.68,5,5,0,0,0,2.35-4c0-1.11-.58-1.67-1.74-1.67a1.53,1.53,0,0,0-1,.3,1.93,1.93,0,0,0-.59.8l-.3.91a3.06,3.06,0,0,1-1.3,1.71,4,4,0,0,1-2.25.67,3.92,3.92,0,0,1-3.11-1.44,5.13,5.13,0,0,1-1.31-3.66s0,0,.13,0h10.09a6.69,6.69,0,0,0,.89,0,.7.7,0,0,0,.48-.28,1.33,1.33,0,0,0,.2-.67c0-.29,0-.7,0-1.21a7.55,7.55,0,0,0-2.08-5.4,7.18,7.18,0,0,0-2.35-1.57,7.73,7.73,0,0,0-3-.54,7.39,7.39,0,0,0-5.86,2.58,9.82,9.82,0,0,0-2.21,6.57,9.27,9.27,0,0,0,2.07,6.3A7.27,7.27,0,0,0,772.47,328.26Zm-2.58-13.64a4.43,4.43,0,0,1,2.88-1.2,3.7,3.7,0,0,1,2.62,1.1,3.57,3.57,0,0,1,1.1,2.62h-7.87A3.4,3.4,0,0,1,769.89,314.62Z"/><path class="cls-2" d="M786.91,327.64l1.11,0c.27,0,.73,0,1.37.1.34,0,.63.08.89.1a5.73,5.73,0,0,0,.65,0h.1c1.23,0,1.85-.53,1.85-1.58s-.52-1.44-1.54-1.44a2.62,2.62,0,0,0-.77.14l-.34,0h-.37c-.18,0-.32-.49-.43-1.47a3.26,3.26,0,0,1,0-.7v-3.66a12.7,12.7,0,0,1,.47-3.95,2.74,2.74,0,0,1,2.82-1.94,2.54,2.54,0,0,1,1.62.5,1.49,1.49,0,0,1,.65,1.24v.17l-.07,0s0,0,0,0a1.75,1.75,0,0,0-1.26.53,1.64,1.64,0,0,0-.55,1.21,1.83,1.83,0,0,0,.65,1.41,2.4,2.4,0,0,0,1.63.57,2.78,2.78,0,0,0,2.24-1,3.89,3.89,0,0,0,.84-2.6,4.84,4.84,0,0,0-.4-2,4.63,4.63,0,0,0-1.14-1.56,5.15,5.15,0,0,0-1.74-1,6.64,6.64,0,0,0-2.25-.36,5.8,5.8,0,0,0-3.92,1.44c-.13-.58-.57-.87-1.31-.87a4,4,0,0,0-.7.07l-.15,0h-.12a1,1,0,0,1-.28,0h-.19l-.38,0-.52-.05-.6-.05a1.61,1.61,0,0,1-.41,0c-1.25,0-1.87.51-1.87,1.54S783,314,784,314a3.86,3.86,0,0,0,.84-.1h-.07l.37,0,.34,0c.17.11.29.58.33,1.41l.1,7.2c0,.27,0,.54,0,.8s0,.54,0,.81c0,.67-.14,1-.34,1h0a.13.13,0,0,1-.1,0h-.27l-.4-.1a.55.55,0,0,0-.29-.05h-.28c-1.17,0-1.75.47-1.75,1.41s.62,1.58,1.85,1.58l1.81-.17Z"/><path class="cls-2" d="M817,319a9.28,9.28,0,0,0-2-6.2,6.79,6.79,0,0,0-5.46-2.38,7.83,7.83,0,0,0-2.35.31,4.66,4.66,0,0,0-1.81,1.17c0-.6,0-1.11,0-1.53s0-.79.07-1.14,0-.68.08-1,.07-.72.12-1.17v-.47c0-.89-.42-1.34-1.24-1.34a4.63,4.63,0,0,0-1,.1,4.92,4.92,0,0,1-.57.1l-.41,0h-.21a1.81,1.81,0,0,1-.29,0,.59.59,0,0,1-.17,0h-.16l-.64-.1a1.61,1.61,0,0,0-.35,0h-.39c-1.2,0-1.81.51-1.81,1.51s.54,1.44,1.61,1.44h.34l.33,0a5.62,5.62,0,0,1,.77-.13c.14,0,.23.1.29.31a7.45,7.45,0,0,1,.11,1.23l.07,8.47q0,.68,0,1.59c0,.62,0,1.15,0,1.6l-.1,2.44c0,.25,0,.49,0,.74v.74a1.55,1.55,0,0,0,0,.33V326c0,1.36.55,2,1.67,2a1.42,1.42,0,0,0,1.58-1.07,6.06,6.06,0,0,0,4.12,1.34,7.89,7.89,0,0,0,3.25-.64,6.56,6.56,0,0,0,2.48-1.91,10.92,10.92,0,0,0,1.56-3A11.42,11.42,0,0,0,817,319Zm-4.77,4.66a3.58,3.58,0,0,1-3.1,1.61,3.25,3.25,0,0,1-3.25-2,17.71,17.71,0,0,1-.24-6.9,3.73,3.73,0,0,1,.47-1.17,3.21,3.21,0,0,1,.84-.92,4.13,4.13,0,0,1,1.11-.61,3.8,3.8,0,0,1,1.27-.21,3.39,3.39,0,0,1,2.95,1.57,7.7,7.7,0,0,1,1.07,4.36A7.4,7.4,0,0,1,812.23,323.67Z"/><path class="cls-2" d="M462.89,357.73a1.23,1.23,0,0,0-1.1.63l-.29,1a2.59,2.59,0,0,1-.9,1.43,2.48,2.48,0,0,1-1.52.5,2.56,2.56,0,0,1-2.24-1.15A5.46,5.46,0,0,1,456,357a5.28,5.28,0,0,1,.85-3.16,2.68,2.68,0,0,1,2.27-1.17c1.11,0,1.79.38,2,1.15a1.36,1.36,0,0,0-.84.45,1.39,1.39,0,0,0-.26.87,1.43,1.43,0,0,0,.5,1.09,1.8,1.8,0,0,0,1.24.45,1.91,1.91,0,0,0,1.5-.65,2.4,2.4,0,0,0,.57-1.65,3.54,3.54,0,0,0-1.34-2.81,5.18,5.18,0,0,0-3.35-1.08,5.38,5.38,0,0,0-4.27,1.86,7.14,7.14,0,0,0-1.56,4.8,6.7,6.7,0,0,0,1.51,4.57,5.68,5.68,0,0,0,6.25,1.37,5.33,5.33,0,0,0,1.69-1.13,6.62,6.62,0,0,0,.95-1.48,3.5,3.5,0,0,0,.41-1.5,1.16,1.16,0,0,0-.36-.88A1.32,1.32,0,0,0,462.89,357.73Z"/><path class="cls-2" d="M472.21,350.46a5.32,5.32,0,0,0-4.24,1.81,6.79,6.79,0,0,0-1.57,4.7,6.91,6.91,0,0,0,1.57,4.72,5.26,5.26,0,0,0,4.17,1.78,5.4,5.4,0,0,0,4.3-1.83,7.91,7.91,0,0,0,.05-9.42A5.5,5.5,0,0,0,472.21,350.46Zm2.31,9.7a2.8,2.8,0,0,1-2.35,1.14,2.59,2.59,0,0,1-2.27-1.15,5.46,5.46,0,0,1-.81-3.18v-.27a5.2,5.2,0,0,1,.89-3,2.74,2.74,0,0,1,2.28-1.05q3.14,0,3.13,4.31A5.19,5.19,0,0,1,474.52,360.16Z"/><path class="cls-2" d="M500.63,361s0,0-.21.05l-.43,0a1.5,1.5,0,0,1-.36,0c-.08,0-.15-.18-.2-.54a3.25,3.25,0,0,1,0-.39v-.73l0-1.74V355.5a12.94,12.94,0,0,0-.07-1.47,3.86,3.86,0,0,0-.25-1,4,4,0,0,0-1.78-1.93,5.49,5.49,0,0,0-2.54-.59,5.11,5.11,0,0,0-2.06.39,5.57,5.57,0,0,0-1.6,1.08,3.3,3.3,0,0,0-1.39-1.12,5.64,5.64,0,0,0-3.65-.09,4,4,0,0,0-1.35.89.88.88,0,0,0-1-.73l-.59.07h-.24l-.17,0h-.37l-.41,0-.37,0h-.31c-.88,0-1.32.37-1.32,1.1s.41,1.08,1.24,1.08h.17a.4.4,0,0,0,.17,0h0L482,353l.24-.08c.1,0,.16.09.17.25a6.42,6.42,0,0,1,.09.83c0,.39,0,.91,0,1.54v3.55q0,.34,0,.66c0,.21,0,.43,0,.66,0,.46-.09.72-.22.81l-.69-.13-.14,0h-.17c-.85,0-1.27.34-1.27,1s.44,1.12,1.32,1.12l.42,0,.82-.08c.45-.05.77-.07.95-.07l.59,0,.7.08a8.58,8.58,0,0,0,1,.07c1,0,1.44-.36,1.44-1.07S486.82,361,486,361h-.22l-.17,0-.39.08s-.08-.17-.13-.49c0-.08,0-.43,0-1.05V356.5a5.09,5.09,0,0,1,.61-3,2.25,2.25,0,0,1,2-1,2.54,2.54,0,0,1,1,.16,1.24,1.24,0,0,1,.63.55,2.77,2.77,0,0,1,.36,1,9.52,9.52,0,0,1,.11,1.55v2a2.13,2.13,0,0,1,0,.3v.5c0,.17,0,.34,0,.52s0,.36,0,.54,0,.36,0,.54c0,.57-.07.86-.17.86l-.14,0-.25,0a1.72,1.72,0,0,0-.49-.05c-.73,0-1.1.34-1.1,1s.45,1.12,1.35,1.12l.51,0a5,5,0,0,0,.54-.08l.55-.07a4.11,4.11,0,0,1,.47,0,2.76,2.76,0,0,1,.38,0l.57.07c.23,0,.44.06.63.08l.5,0c1,0,1.46-.37,1.46-1.1a1,1,0,0,0-.33-.77,1.17,1.17,0,0,0-.81-.31l-.16,0a1.82,1.82,0,0,0-.31.05l-.22,0h-.12c-.08,0-.14-.09-.17-.27a9.41,9.41,0,0,1-.08-1c0-.45,0-1,0-1.7v-1.64a6.88,6.88,0,0,1,.46-3,2.12,2.12,0,0,1,2-1,2.42,2.42,0,0,1,1.32.36,1.73,1.73,0,0,1,.76,1,8.12,8.12,0,0,1,.21,2.19v1.51c0,.23,0,.47,0,.71s0,.48,0,.71a12.75,12.75,0,0,1-.12,1.89c0,.09-.06.14-.13.14l-.27,0h-.2l-.16,0h-.2c-.74,0-1.12.33-1.12,1s.46,1.15,1.37,1.15l.51,0c.21,0,.43,0,.66-.08l.63-.06h.47c.21,0,.55,0,1,.07l.65.08.48,0c.86,0,1.29-.38,1.29-1.15S501.41,361.06,500.63,361Z"/><path class="cls-2" d="M510.87,350a1.55,1.55,0,0,0,1.06.38A1.5,1.5,0,0,0,513,350a1.39,1.39,0,0,0,.42-1.05,2.12,2.12,0,0,0-1-1.81,4.6,4.6,0,0,0-2.63-.68,3.7,3.7,0,0,0-4.1,4.11v.39h-1.22c-.81,0-1.22.37-1.22,1.12a1,1,0,0,0,1.19,1.18h1.15s0,0,0,.09c0,.84,0,1.65,0,2.45s0,1.61,0,2.42a24.71,24.71,0,0,1-.14,2.62c0,.19-.07.29-.15.29h-.2a.52.52,0,0,1-.24-.05l-.28-.07a1.62,1.62,0,0,0-.33,0,1.17,1.17,0,0,0-.84.33,1,1,0,0,0-.36.74c0,.77.47,1.15,1.39,1.15a2.93,2.93,0,0,0,.44,0l.76-.08a8.82,8.82,0,0,1,1.2-.07,3.94,3.94,0,0,1,.46,0l.68.07c.26,0,.5.06.71.08l.54,0c.89,0,1.34-.38,1.34-1.15s-.4-1.07-1.19-1.07h-.15a.86.86,0,0,0-.22,0,.47.47,0,0,1-.17,0l-.38.08-.11,0c-.13,0-.2-.11-.22-.34v-7.53h1.71a1.15,1.15,0,1,0,0-2.3h-1.71v-.39a2.29,2.29,0,0,1,.48-1.54,1.53,1.53,0,0,1,1.25-.57,1.36,1.36,0,0,1,.66.13,1.13,1.13,0,0,0-.12.51A1.19,1.19,0,0,0,510.87,350Z"/><path class="cls-2" d="M517.91,350.46a5.34,5.34,0,0,0-4.25,1.81,6.79,6.79,0,0,0-1.56,4.7,6.91,6.91,0,0,0,1.56,4.72,5.28,5.28,0,0,0,4.18,1.78,5.38,5.38,0,0,0,4.29-1.83,7.87,7.87,0,0,0,0-9.42A5.46,5.46,0,0,0,517.91,350.46Zm2.31,9.7a2.82,2.82,0,0,1-2.36,1.14,2.61,2.61,0,0,1-2.27-1.15,5.54,5.54,0,0,1-.8-3.18v-.27a5.13,5.13,0,0,1,.89-3,2.71,2.71,0,0,1,2.28-1.05c2.08,0,3.13,1.44,3.13,4.31A5.19,5.19,0,0,1,520.22,360.16Z"/><path class="cls-2" d="M536.05,351.45a3.88,3.88,0,0,0-1.27-.73,5,5,0,0,0-1.64-.26,4.17,4.17,0,0,0-2.85,1.05q-.15-.63-1-.63a2.84,2.84,0,0,0-.51.05h-.19l-.21,0H528l-.38,0-.44,0a1,1,0,0,1-.3,0c-.91,0-1.36.38-1.36,1.13s.38,1.08,1.14,1.08a2.37,2.37,0,0,0,.61-.08h0l.26,0,.25,0c.13.08.21.43.24,1l.08,5.26c0,.19,0,.39,0,.59s0,.39,0,.58c0,.49-.1.74-.25.74h0a.08.08,0,0,1-.07,0h-.2l-.29-.07a.43.43,0,0,0-.21,0h-.21c-.84,0-1.27.35-1.27,1s.45,1.15,1.35,1.15l1.31-.12.61,0h.81c.19,0,.53,0,1,.07.24,0,.46.06.65.08l.47,0h.08c.89,0,1.34-.38,1.34-1.15s-.38-1-1.12-1a1.85,1.85,0,0,0-.57.1l-.24,0-.27,0c-.13,0-.23-.36-.32-1.08a4.32,4.32,0,0,1,0-.51v-2.67a9.15,9.15,0,0,1,.34-2.88,2,2,0,0,1,2.05-1.42,1.93,1.93,0,0,1,1.19.36,1.13,1.13,0,0,1,.47.91V354l-.06,0s0,0,0,0a1.27,1.27,0,0,0-.91.39,1.21,1.21,0,0,0-.41.88,1.31,1.31,0,0,0,.48,1,1.73,1.73,0,0,0,1.19.42,2,2,0,0,0,1.63-.73,2.81,2.81,0,0,0,.61-1.89,3.67,3.67,0,0,0-.29-1.47A3.35,3.35,0,0,0,536.05,351.45Z"/><path class="cls-2" d="M546.72,356.8c-.8,0-1.22.42-1.25,1.27l-.05,1.49c0,1.09-.43,1.64-1.29,1.64s-1.2-.7-1.2-2.1v-5.7a.18.18,0,0,0-.07-.17h2.56c.88,0,1.32-.39,1.32-1.18s-.42-1.12-1.27-1.12H543a0,0,0,0,1,0,0v-2.47a1.08,1.08,0,0,0-1.22-1.22c-.86,0-1.29.41-1.29,1.22v2.5h-.91a1.11,1.11,0,0,0-.81.35,1.1,1.1,0,0,0-.36.8,1.08,1.08,0,0,0,.36.82,1.24,1.24,0,0,0,.89.33h.73s0,0,0,.17V359a5.78,5.78,0,0,0,.66,3.11,2.82,2.82,0,0,0,1.18,1,4.2,4.2,0,0,0,1.77.35,3.56,3.56,0,0,0,3.2-1.47,4.79,4.79,0,0,0,.54-1.48,11,11,0,0,0,.19-2.24C547.91,357.26,547.51,356.8,546.72,356.8Z"/><path class="cls-2" d="M562.61,360.83l0-1.32v-.12c0-.94-.39-1.42-1.17-1.42s-1.1.35-1.1,1v1.15c0,.77-.14,1.15-.41,1.15s-.31-.18-.39-.54a2.89,2.89,0,0,1,0-.45c0-.22,0-.49,0-.82v-4.67q0-4.38-4.62-4.38a5.47,5.47,0,0,0-3.34,1,2.93,2.93,0,0,0-1.44,2.47,1.71,1.71,0,0,0,.51,1.26,1.79,1.79,0,0,0,1.3.5,1.67,1.67,0,0,0,1.13-.39,1.28,1.28,0,0,0,.45-1,1.35,1.35,0,0,0-.51-1.05h0a1,1,0,0,1,.18-.19v0a3,3,0,0,1,1.73-.54,2.33,2.33,0,0,1,1.55.47,1.53,1.53,0,0,1,.55,1.24,1.25,1.25,0,0,1-.42,1.1,6.56,6.56,0,0,1-2.37.52,16.35,16.35,0,0,0-1.87.29,5,5,0,0,0-1.15.49,3.92,3.92,0,0,0-1.36,1.29,3.58,3.58,0,0,0,.72,4.52,5,5,0,0,0,3.3,1,4.81,4.81,0,0,0,3.59-1.32,2.48,2.48,0,0,0,2.44,1.23Q562.55,363.38,562.61,360.83Zm-5.72-2.37a2.86,2.86,0,0,1-.79,2.08,3,3,0,0,1-2.16.76,2.2,2.2,0,0,1-1.45-.43,1.39,1.39,0,0,1-.53-1.14c0-.94.77-1.49,2.3-1.64a9.51,9.51,0,0,0,2.07-.34,1.85,1.85,0,0,0,.31-.11l.28-.11Z"/><path class="cls-2" d="M567.44,351.54c0-.44,0-.81,0-1.11s0-.58,0-.83,0-.51.06-.75.06-.53.09-.86v-.34c0-.65-.3-1-.9-1a3.51,3.51,0,0,0-.71.08l-.42.07a1.74,1.74,0,0,1-.29,0h-.16a.86.86,0,0,1-.21,0h-.24l-.46-.08-.26,0h-.28c-.88,0-1.32.36-1.32,1.1s.39,1.05,1.17,1.05h.25l.24,0a4.85,4.85,0,0,1,.56-.09c.1,0,.17.07.21.23a5.13,5.13,0,0,1,.09.89l0,6.19c0,.33,0,.71,0,1.16s0,.84,0,1.16l-.08,1.79c0,.18,0,.36,0,.54v.53a.9.9,0,0,0,0,.25v.32c0,1,.41,1.49,1.22,1.49a1,1,0,0,0,1.15-.78,4.42,4.42,0,0,0,3,1,5.79,5.79,0,0,0,2.37-.46,4.87,4.87,0,0,0,1.81-1.39,7.62,7.62,0,0,0,1.13-2.18,8.21,8.21,0,0,0,.43-2.72,6.82,6.82,0,0,0-1.46-4.52,4.94,4.94,0,0,0-4-1.74,5.83,5.83,0,0,0-1.71.22A3.37,3.37,0,0,0,567.44,351.54Zm2.88,1.1a2.46,2.46,0,0,1,2.15,1.15,5.62,5.62,0,0,1,.78,3.18,5.37,5.37,0,0,1-.82,3.15,2.59,2.59,0,0,1-2.26,1.18,2.37,2.37,0,0,1-2.36-1.49,9.26,9.26,0,0,1-.35-3,9,9,0,0,1,.17-2,2.6,2.6,0,0,1,.35-.86,2.43,2.43,0,0,1,.61-.67,3,3,0,0,1,.8-.44A2.64,2.64,0,0,1,570.32,352.64Z"/><path class="cls-2" d="M583.77,361h-.13l-.14,0s0,0,0,0h-.24l-.16,0h-.11l-.12,0c-.13,0-.2-.29-.22-.86l0-7.19c0-2.13,0-3.81.14-5a.31.31,0,0,0,0-.17,1.35,1.35,0,0,1,0-.22c0-.67-.3-1-.91-1a2.43,2.43,0,0,0-.38,0,3.77,3.77,0,0,0-.4.07,2.5,2.5,0,0,1-.38.06h-.44a.93.93,0,0,1-.23,0h-.19l-.49-.08-.23,0h-.28c-.88,0-1.32.36-1.32,1.1s.4,1.05,1.19,1.05h.21l.21,0,.58-.09a.21.21,0,0,1,.15.07.79.79,0,0,1,.12.15l.08.93v.93c0,.35,0,.73,0,1.12s0,.77,0,1.13V354l-.07,3.59c0,.26,0,.53,0,.79s0,.55,0,.82c0,.49,0,.89-.05,1.18a3,3,0,0,1-.07.61.16.16,0,0,1-.15.12l-.17,0-.41-.08a.68.68,0,0,1-.2,0h-.24c-.8,0-1.2.34-1.2,1s.46,1.17,1.37,1.17H579l.49,0c.2,0,.41,0,.64-.08l.63-.07a3.8,3.8,0,0,1,.44,0,4.81,4.81,0,0,1,.5,0l.7.07.72.08.5,0c.89,0,1.34-.37,1.34-1.1S584.54,361,583.77,361Z"/><path class="cls-2" d="M594.46,350.85a5.67,5.67,0,0,0-2.17-.39,5.37,5.37,0,0,0-4.27,1.89,7.14,7.14,0,0,0-1.61,4.79,6.75,6.75,0,0,0,1.51,4.6,5.3,5.3,0,0,0,4.18,1.73,6,6,0,0,0,3.68-1.22,3.63,3.63,0,0,0,1.71-2.93,1.1,1.1,0,0,0-1.27-1.23,1.15,1.15,0,0,0-.7.22,1.51,1.51,0,0,0-.42.59l-.22.66a2.28,2.28,0,0,1-1,1.25,3,3,0,0,1-3.91-.56,3.81,3.81,0,0,1-.95-2.67s0,0,.1,0h7.34a5,5,0,0,0,.65,0,.51.51,0,0,0,.35-.21.92.92,0,0,0,.15-.49c0-.21,0-.5,0-.88a5.51,5.51,0,0,0-1.52-3.94A5.31,5.31,0,0,0,594.46,350.85Zm-5.17,4.5a2.48,2.48,0,0,1,.93-1.83,3.18,3.18,0,0,1,2.1-.88,2.71,2.71,0,0,1,1.9.81,2.59,2.59,0,0,1,.8,1.9Z"/><path class="cls-2" d="M612.41,350.46a5.33,5.33,0,0,0-4.25,1.81,6.79,6.79,0,0,0-1.57,4.7,6.91,6.91,0,0,0,1.57,4.72,5.26,5.26,0,0,0,4.17,1.78,5.4,5.4,0,0,0,4.3-1.83,7.91,7.91,0,0,0,0-9.42A5.48,5.48,0,0,0,612.41,350.46Zm2.3,9.7a2.8,2.8,0,0,1-2.35,1.14,2.59,2.59,0,0,1-2.27-1.15,5.46,5.46,0,0,1-.81-3.18v-.27a5.2,5.2,0,0,1,.89-3,2.74,2.74,0,0,1,2.28-1.05q3.13,0,3.13,4.31A5.19,5.19,0,0,1,614.71,360.16Z"/><path class="cls-2" d="M630.54,351.45a3.88,3.88,0,0,0-1.27-.73,4.93,4.93,0,0,0-1.63-.26,4.19,4.19,0,0,0-2.86,1.05c-.1-.42-.41-.63-.95-.63a2.76,2.76,0,0,0-.51.05h-.2l-.21,0h-.41l-.38,0-.44,0a.93.93,0,0,1-.29,0c-.91,0-1.37.38-1.37,1.13s.38,1.08,1.15,1.08a2.49,2.49,0,0,0,.61-.08h0l.27,0,.24,0c.13.08.21.43.25,1l.07,5.26c0,.19,0,.39,0,.59a5.63,5.63,0,0,0,0,.58c0,.49-.1.74-.24.74h0a.08.08,0,0,1-.07,0H622l-.29-.07a.43.43,0,0,0-.21,0h-.21c-.84,0-1.26.35-1.26,1s.44,1.15,1.34,1.15l1.32-.12.61,0h.8c.2,0,.53,0,1,.07l.65.08.48,0h.07c.89,0,1.34-.38,1.34-1.15s-.37-1-1.12-1a1.79,1.79,0,0,0-.56.1l-.25,0-.26,0c-.13,0-.24-.36-.32-1.08a2.45,2.45,0,0,1,0-.51v-2.67a9.1,9.1,0,0,1,.35-2.88,2,2,0,0,1,2.05-1.42,1.9,1.9,0,0,1,1.18.36,1.12,1.12,0,0,1,.48.91V354l-.06,0s0,0,0,0a1.28,1.28,0,0,0-.92.39,1.2,1.2,0,0,0-.4.88,1.31,1.31,0,0,0,.48,1,1.71,1.71,0,0,0,1.18.42,2,2,0,0,0,1.63-.73,2.81,2.81,0,0,0,.61-1.89,3.51,3.51,0,0,0-.29-1.47A3.22,3.22,0,0,0,630.54,351.45Z"/><path class="cls-2" d="M646.6,366.14a1,1,0,0,0-1.09-1.08l-.24,0a3.47,3.47,0,0,0-.42.05l-.35.05c-.13,0-.22-.16-.29-.47v0a3.59,3.59,0,0,1,0-.4v-1.76a4.58,4.58,0,0,0,2.85.88,5.73,5.73,0,0,0,2.35-.46,4.76,4.76,0,0,0,1.8-1.39,7.64,7.64,0,0,0,1.14-2.18,8.95,8.95,0,0,0,0-5.32,5.63,5.63,0,0,0-1.1-2,5,5,0,0,0-1.72-1.25,5.61,5.61,0,0,0-2.25-.44,4.61,4.61,0,0,0-3.15,1.15.83.83,0,0,0-.95-.73h-.27l-.34,0-.34,0h-.43a1.52,1.52,0,0,1-.28,0h-.16l-.18,0-.29,0h-.3q-1.41,0-1.41,1.05c0,.73.41,1.1,1.24,1.1l.35,0a2.37,2.37,0,0,0,.31-.08,1.34,1.34,0,0,1,.37-.07c.11,0,.18.25.19.76,0,1.48,0,3,0,4.46s0,3,0,4.46c0,.66,0,1.18,0,1.58s0,.69-.07.87-.08.2-.15.2a2.1,2.1,0,0,1-.49-.1l-.28,0h-.26q-1.17,0-1.17,1a1,1,0,0,0,.39.82,1.44,1.44,0,0,0,1,.33l.44,0c.19,0,.41,0,.65-.08h.18l.41,0h.46a11.85,11.85,0,0,1,1.49.07h0c.23,0,.43.06.62.08l.48,0C646.15,367.24,646.6,366.87,646.6,366.14Zm-2.34-8.88a.68.68,0,0,0,0-.21v-.18c0-.39.05-.76.08-1.11a6.78,6.78,0,0,1,.17-1,2.49,2.49,0,0,1,1-1.51,2.8,2.8,0,0,1,1.72-.59c1.92,0,2.89,1.44,2.89,4.31a5.45,5.45,0,0,1-.81,3.22,2.66,2.66,0,0,1-2.3,1.13,2.78,2.78,0,0,1-.87-.14,3.11,3.11,0,0,1-.76-.35,3.54,3.54,0,0,1-.53-.49,1.72,1.72,0,0,1-.33-.59,4.09,4.09,0,0,1-.18-.88,11.9,11.9,0,0,1-.06-1.29Z"/><path class="cls-2" d="M660.64,361h-.13l-.14,0s0,0,0,0h-.24l-.16,0h-.11l-.12,0c-.13,0-.21-.29-.22-.86l0-7.19c0-2.13,0-3.81.15-5a.45.45,0,0,0,0-.17,1.18,1.18,0,0,1,0-.22c0-.67-.3-1-.9-1a2.34,2.34,0,0,0-.38,0,3.77,3.77,0,0,0-.4.07l-.38.06h-.44a.93.93,0,0,1-.23,0h-.19l-.49-.08-.24,0h-.28c-.87,0-1.31.36-1.31,1.1s.39,1.05,1.19,1.05h.21l.21,0,.58-.09a.21.21,0,0,1,.15.07.79.79,0,0,1,.12.15l.07.93v.93c0,.35,0,.73,0,1.12s0,.77,0,1.13V354l-.07,3.59c0,.26,0,.53,0,.79s0,.55,0,.82c0,.49,0,.89-.05,1.18a3,3,0,0,1-.07.61.16.16,0,0,1-.15.12l-.17,0L656,361a.68.68,0,0,1-.2,0h-.24c-.8,0-1.2.34-1.2,1s.46,1.17,1.37,1.17h.12l.49,0c.19,0,.41,0,.63-.08l.64-.07a3.71,3.71,0,0,1,.44,0,4.9,4.9,0,0,1,.5,0l.69.07.72.08.5,0c.9,0,1.35-.37,1.35-1.1S661.4,361,660.64,361Z"/><path class="cls-2" d="M671.33,350.85a5.67,5.67,0,0,0-2.17-.39,5.37,5.37,0,0,0-4.27,1.89,7.14,7.14,0,0,0-1.61,4.79,6.75,6.75,0,0,0,1.51,4.6,5.27,5.27,0,0,0,4.17,1.73,6,6,0,0,0,3.69-1.22,3.63,3.63,0,0,0,1.71-2.93,1.11,1.11,0,0,0-1.27-1.23,1.15,1.15,0,0,0-.7.22,1.42,1.42,0,0,0-.42.59l-.22.66a2.25,2.25,0,0,1-1,1.25,2.82,2.82,0,0,1-1.63.49,2.87,2.87,0,0,1-2.27-1.05,3.76,3.76,0,0,1-.95-2.67s0,0,.09,0h7.35a5.08,5.08,0,0,0,.65,0,.51.51,0,0,0,.35-.21,1,1,0,0,0,.15-.49c0-.21,0-.5,0-.88A5.5,5.5,0,0,0,673,352,5.31,5.31,0,0,0,671.33,350.85Zm-5.17,4.5a2.47,2.47,0,0,1,.92-1.83,3.22,3.22,0,0,1,2.1-.88,2.72,2.72,0,0,1,1.91.81,2.62,2.62,0,0,1,.8,1.9Z"/><path class="cls-2" d="M688.74,358c-.74,0-1.1.35-1.1,1v1.15c0,.77-.14,1.15-.42,1.15s-.31-.18-.39-.54a3.33,3.33,0,0,1,0-.45c0-.22,0-.49,0-.82v-4.67c0-2.92-1.53-4.38-4.61-4.38a5.47,5.47,0,0,0-3.34,1,2.93,2.93,0,0,0-1.44,2.47,1.71,1.71,0,0,0,.51,1.26,1.78,1.78,0,0,0,1.29.5,1.68,1.68,0,0,0,1.14-.39,1.28,1.28,0,0,0,.45-1,1.35,1.35,0,0,0-.51-1.05h0a1.15,1.15,0,0,1,.17-.19v0a3,3,0,0,1,1.74-.54,2.35,2.35,0,0,1,1.55.47,1.56,1.56,0,0,1,.55,1.24,1.25,1.25,0,0,1-.42,1.1,6.56,6.56,0,0,1-2.37.52,17.07,17.07,0,0,0-1.88.29,5.11,5.11,0,0,0-1.14.49,3.83,3.83,0,0,0-1.36,1.29,3.58,3.58,0,0,0,.72,4.52,5,5,0,0,0,3.3,1,4.77,4.77,0,0,0,3.58-1.32,2.5,2.5,0,0,0,2.45,1.23c1.8,0,2.72-.85,2.75-2.55l0-1.32v-.12C689.91,358.45,689.52,358,688.74,358Zm-4.57.49a2.86,2.86,0,0,1-.79,2.08,3,3,0,0,1-2.16.76,2.2,2.2,0,0,1-1.45-.43,1.39,1.39,0,0,1-.53-1.14c0-.94.77-1.49,2.3-1.64a9.51,9.51,0,0,0,2.07-.34l.31-.11.28-.11Z"/><path class="cls-2" d="M697.28,355.84l-.67-.09-.67-.1a3,3,0,0,1-1.22-.5,1.14,1.14,0,0,1-.47-.95,1.35,1.35,0,0,1,.61-1.12,2.52,2.52,0,0,1,1.49-.44,3,3,0,0,1,1.55.4,1.2,1.2,0,0,1,.67,1l0,.78q0,1.05,1.17,1c.77,0,1.15-.4,1.15-1.22a2.75,2.75,0,0,0,0-.38c0-.14,0-.29-.07-.47a4.64,4.64,0,0,1-.07-.76c0-.13,0-.27,0-.42s0-.29.07-.44a2.46,2.46,0,0,1,0-.26c0-.09,0-.16,0-.23a.72.72,0,0,1,0-.17.31.31,0,0,0,0-.1c0-.71-.38-1.07-1.14-1.07a1,1,0,0,0-1.08.68,4.44,4.44,0,0,0-2.27-.54,6,6,0,0,0-1.95.3,4.62,4.62,0,0,0-1.51.8,3.52,3.52,0,0,0-1,1.25,3.63,3.63,0,0,0-.36,1.62,3.39,3.39,0,0,0,.34,1.58,2.65,2.65,0,0,0,1,1,5.33,5.33,0,0,0,1.63.64,18.72,18.72,0,0,0,2.25.38c1.43.15,2.15.65,2.15,1.52a1.48,1.48,0,0,1-.63,1.23,2.49,2.49,0,0,1-1.57.48,4.44,4.44,0,0,1-2.33-.54,1.65,1.65,0,0,1-.92-1.39,3.81,3.81,0,0,0-.19-1.35c-.12-.28-.43-.41-1-.41a1,1,0,0,0-1.14,1.12,2.84,2.84,0,0,0,.07.66c0,.18.06.37.08.58a3.82,3.82,0,0,1,0,.57c0,.23,0,.4,0,.53s0,.24,0,.35a3.77,3.77,0,0,1-.06.39c0,.15,0,.34-.08.59a1.11,1.11,0,0,0,1.24,1.27,1,1,0,0,0,1.17-.93,5.93,5.93,0,0,0,2.93.73,5.74,5.74,0,0,0,3.57-1.07,3.73,3.73,0,0,0,1.44-3C701.58,357.43,700.14,356.24,697.28,355.84Z"/><path class="cls-2" d="M714.83,363.11a1.12,1.12,0,0,1,.27,0h.15l.66.07H716l.1,0,.25,0h.24c.91,0,1.36-.37,1.36-1.12s-.4-1.08-1.19-1.08l-.16,0-.33.05-.27,0h-.17c-.08,0-.16-.33-.25-1,0-.08,0-.58,0-1.49V355c0-.56,0-1.05,0-1.47s0-.78.08-1.08v0a3.33,3.33,0,0,0,.05-.59c0-.7-.37-1.05-1.1-1.05h-.28l-.3,0a1.78,1.78,0,0,1-.31,0h-.45l-.37,0-.36,0-.3,0c-.86,0-1.29.38-1.29,1.13s.4,1,1.2,1h.34a2.28,2.28,0,0,1,.34,0c.1,0,.17.26.22.79v2.78a10.18,10.18,0,0,1-.34,3.3,2.1,2.1,0,0,1-.94,1.06,3,3,0,0,1-1.53.39,2,2,0,0,1-2.17-1.25,7.73,7.73,0,0,1-.21-1.1,13.56,13.56,0,0,1-.08-1.69V355.8l.07-1.72,0-1.54v-.49c0-.79-.38-1.2-1.13-1.2l-.24,0-.2,0a1.78,1.78,0,0,1-.39.07h-.57l-.38,0-.38,0h-.3c-.93,0-1.4.35-1.4,1.05s.4,1.1,1.2,1.1l.18,0,.36-.05.22,0H705c.2,0,.3.95.3,2.86v3.16c0,.35,0,.63,0,.83a4.29,4.29,0,0,0,.17,1,4.12,4.12,0,0,0,.39.88c.78,1.23,2.16,1.85,4.13,1.85a4.89,4.89,0,0,0,3.22-1.05c.08.51.43.76,1,.76a2.38,2.38,0,0,0,.59-.07Z"/><path class="cls-2" d="M726.69,355.23a1.31,1.31,0,0,0,.48,1,1.73,1.73,0,0,0,1.19.42A2,2,0,0,0,730,356a2.81,2.81,0,0,0,.61-1.89,3.67,3.67,0,0,0-.29-1.47,3.35,3.35,0,0,0-.83-1.14,3.88,3.88,0,0,0-1.27-.73,5,5,0,0,0-1.64-.26,4.17,4.17,0,0,0-2.85,1.05q-.15-.63-1-.63a2.84,2.84,0,0,0-.51.05h-.19l-.21,0h-.41l-.38,0-.44,0a1,1,0,0,1-.3,0c-.91,0-1.36.38-1.36,1.13s.38,1.08,1.14,1.08a2.37,2.37,0,0,0,.61-.08h0l.26,0,.25,0c.13.08.21.43.24,1l.08,5.26c0,.19,0,.39,0,.59s0,.39,0,.58c0,.49-.1.74-.25.74h0a.08.08,0,0,1-.07,0h-.2l-.29-.07a.43.43,0,0,0-.21,0h-.21c-.84,0-1.27.35-1.27,1s.45,1.15,1.35,1.15l1.31-.12.61,0H723c.19,0,.53,0,1,.07.24,0,.46.06.65.08l.47,0h.08c.89,0,1.34-.38,1.34-1.15s-.38-1-1.12-1a1.85,1.85,0,0,0-.57.1l-.24,0-.27,0c-.13,0-.23-.36-.31-1.08a2.45,2.45,0,0,1,0-.51v-2.67a9.15,9.15,0,0,1,.34-2.88,2,2,0,0,1,2-1.42,1.93,1.93,0,0,1,1.19.36,1.13,1.13,0,0,1,.47.91V354l-.06,0s0,0,0,0a1.27,1.27,0,0,0-.91.39A1.21,1.21,0,0,0,726.69,355.23Z"/><path class="cls-2" d="M733.21,355.2a1.8,1.8,0,0,0,1.3.5,1.67,1.67,0,0,0,1.13-.39,1.28,1.28,0,0,0,.45-1,1.35,1.35,0,0,0-.51-1.05h0a.76.76,0,0,1,.17-.19v0a3,3,0,0,1,1.73-.54A2.33,2.33,0,0,1,739,353a1.53,1.53,0,0,1,.55,1.24,1.25,1.25,0,0,1-.42,1.1,6.54,6.54,0,0,1-2.36.52,16.65,16.65,0,0,0-1.88.29,5,5,0,0,0-1.15.49,3.92,3.92,0,0,0-1.36,1.29,3.58,3.58,0,0,0,.72,4.52,5,5,0,0,0,3.3,1,4.79,4.79,0,0,0,3.59-1.32,2.48,2.48,0,0,0,2.44,1.23q2.71,0,2.76-2.55l0-1.32v-.12c0-.94-.39-1.42-1.17-1.42s-1.1.35-1.1,1v1.15c0,.77-.14,1.15-.41,1.15s-.31-.18-.39-.54a2.89,2.89,0,0,1,0-.45c0-.22,0-.49,0-.82v-4.67q0-4.38-4.62-4.38a5.49,5.49,0,0,0-3.34,1,2.93,2.93,0,0,0-1.44,2.47A1.71,1.71,0,0,0,733.21,355.2Zm6.28,3.26a2.91,2.91,0,0,1-.8,2.08,3,3,0,0,1-2.16.76,2.2,2.2,0,0,1-1.45-.43,1.38,1.38,0,0,1-.52-1.14c0-.94.76-1.49,2.29-1.64a9.4,9.4,0,0,0,2.07-.34,1.85,1.85,0,0,0,.31-.11l.28-.11Z"/><path class="cls-2" d="M747.52,358.36l-.08,1.79c0,.18,0,.36,0,.54v.53a.94.94,0,0,0,0,.25v.32c0,1,.4,1.49,1.22,1.49a1,1,0,0,0,1.14-.78,4.43,4.43,0,0,0,3,1,5.78,5.78,0,0,0,2.36-.46,4.79,4.79,0,0,0,1.81-1.39,7.9,7.9,0,0,0,1.14-2.18,8.48,8.48,0,0,0,.42-2.72A6.82,6.82,0,0,0,757,352.2a4.94,4.94,0,0,0-4-1.74,5.92,5.92,0,0,0-1.71.22,3.44,3.44,0,0,0-1.32.86q0-.66,0-1.11c0-.3,0-.58.05-.83s0-.51.06-.75.05-.53.08-.86v-.34c0-.65-.3-1-.9-1a3.59,3.59,0,0,0-.71.08l-.41.07a1.85,1.85,0,0,1-.3,0h-.16a.79.79,0,0,1-.2,0h-.25l-.46-.08-.26,0h-.28c-.88,0-1.32.36-1.32,1.1s.39,1.05,1.17,1.05h.25l.24,0a4.85,4.85,0,0,1,.56-.09c.1,0,.17.07.21.23a5.13,5.13,0,0,1,.09.89l.05,6.19c0,.33,0,.71,0,1.16S747.52,358,747.52,358.36Zm2.71-3.59a2.58,2.58,0,0,1,.34-.86,2.43,2.43,0,0,1,.61-.67,2.88,2.88,0,0,1,.81-.44,2.58,2.58,0,0,1,.92-.16,2.46,2.46,0,0,1,2.15,1.15,5.62,5.62,0,0,1,.78,3.18,5.37,5.37,0,0,1-.82,3.15,2.57,2.57,0,0,1-2.25,1.18,2.38,2.38,0,0,1-2.37-1.49,9.33,9.33,0,0,1-.34-3A8.43,8.43,0,0,1,750.23,354.77Z"/><path class="cls-2" d="M766.36,361h-.13l-.14,0s0,0,0,0h-.25l-.16,0h-.11l-.12,0c-.13,0-.2-.29-.22-.86l0-7.19c0-2.13.05-3.81.14-5a.24.24,0,0,0,0-.17,1.35,1.35,0,0,1,0-.22c0-.67-.3-1-.91-1a2.22,2.22,0,0,0-.37,0,3.52,3.52,0,0,0-.41.07l-.37.06h-.45a.93.93,0,0,1-.23,0h-.19l-.49-.08-.23,0h-.28c-.88,0-1.32.36-1.32,1.1s.4,1.05,1.2,1.05h.2l.21,0,.59-.09a.21.21,0,0,1,.14.07.79.79,0,0,1,.12.15l.08.93v.93c0,.35,0,.73,0,1.12s0,.77,0,1.13V354l-.07,3.59c0,.26,0,.53,0,.79s0,.55,0,.82c0,.49,0,.89,0,1.18a3.62,3.62,0,0,1-.08.61c0,.08-.08.12-.14.12l-.17,0-.42-.08a.58.58,0,0,1-.19,0h-.25c-.8,0-1.2.34-1.2,1s.46,1.17,1.37,1.17h.12l.49,0c.2,0,.41,0,.64-.08l.63-.07a3.8,3.8,0,0,1,.44,0,4.81,4.81,0,0,1,.5,0l.7.07.72.08.5,0c.89,0,1.34-.37,1.34-1.1S767.13,361,766.36,361Z"/><path class="cls-2" d="M777.05,350.85a5.67,5.67,0,0,0-2.17-.39,5.37,5.37,0,0,0-4.27,1.89,7.14,7.14,0,0,0-1.61,4.79,6.75,6.75,0,0,0,1.51,4.6,5.3,5.3,0,0,0,4.18,1.73,6,6,0,0,0,3.68-1.22,3.63,3.63,0,0,0,1.71-2.93,1.1,1.1,0,0,0-1.27-1.23,1.12,1.12,0,0,0-.69.22,1.44,1.44,0,0,0-.43.59l-.22.66a2.28,2.28,0,0,1-1,1.25,3,3,0,0,1-3.91-.56,3.81,3.81,0,0,1-1-2.67s0,0,.1,0h7.34a5,5,0,0,0,.65,0,.53.53,0,0,0,.36-.21.92.92,0,0,0,.14-.49c0-.21,0-.5,0-.88a5.51,5.51,0,0,0-1.52-3.94A5.31,5.31,0,0,0,777.05,350.85Zm-5.17,4.5a2.48,2.48,0,0,1,.93-1.83,3.18,3.18,0,0,1,2.1-.88,2.7,2.7,0,0,1,1.9.81,2.59,2.59,0,0,1,.8,1.9Z"/><path class="cls-2" d="M794.6,350.46a5.49,5.49,0,0,0-3.34,1,2.93,2.93,0,0,0-1.44,2.47,1.71,1.71,0,0,0,.51,1.26,1.8,1.8,0,0,0,1.3.5,1.67,1.67,0,0,0,1.13-.39,1.28,1.28,0,0,0,.45-1,1.35,1.35,0,0,0-.51-1.05h0a.76.76,0,0,1,.17-.19v0a3,3,0,0,1,1.73-.54,2.33,2.33,0,0,1,1.55.47,1.53,1.53,0,0,1,.55,1.24,1.27,1.27,0,0,1-.41,1.1,6.68,6.68,0,0,1-2.37.52,16.65,16.65,0,0,0-1.88.29,5,5,0,0,0-1.15.49,3.8,3.8,0,0,0-1.35,1.29,3.27,3.27,0,0,0-.5,1.82,3.33,3.33,0,0,0,1.22,2.7,5,5,0,0,0,3.29,1,4.79,4.79,0,0,0,3.59-1.32,2.48,2.48,0,0,0,2.44,1.23q2.72,0,2.76-2.55l0-1.32v-.12c0-.94-.39-1.42-1.17-1.42s-1.1.35-1.1,1v1.15c0,.77-.14,1.15-.41,1.15s-.31-.18-.39-.54a2.89,2.89,0,0,1,0-.45c0-.22,0-.49,0-.82v-4.67Q799.22,350.46,794.6,350.46Zm2,8a2.87,2.87,0,0,1-.8,2.08,3,3,0,0,1-2.16.76,2.2,2.2,0,0,1-1.45-.43,1.38,1.38,0,0,1-.52-1.14c0-.94.76-1.49,2.29-1.64a9.63,9.63,0,0,0,2.08-.34,2.09,2.09,0,0,0,.3-.11l.28-.11Z"/><path class="cls-2" d="M813.11,357.73a1.23,1.23,0,0,0-1.1.63l-.29,1a2.55,2.55,0,0,1-.91,1.43,2.43,2.43,0,0,1-1.51.5,2.56,2.56,0,0,1-2.24-1.15,5.46,5.46,0,0,1-.81-3.18,5.28,5.28,0,0,1,.85-3.16,2.69,2.69,0,0,1,2.28-1.17c1.1,0,1.78.38,2,1.15a1.36,1.36,0,0,0-.84.45,1.39,1.39,0,0,0-.26.87,1.43,1.43,0,0,0,.5,1.09,1.79,1.79,0,0,0,1.23.45,1.91,1.91,0,0,0,1.51-.65,2.4,2.4,0,0,0,.57-1.65,3.54,3.54,0,0,0-1.34-2.81,5.18,5.18,0,0,0-3.35-1.08,5.38,5.38,0,0,0-4.27,1.86,7.14,7.14,0,0,0-1.56,4.8,6.7,6.7,0,0,0,1.51,4.57,5.68,5.68,0,0,0,6.25,1.37,5.33,5.33,0,0,0,1.69-1.13,6.62,6.62,0,0,0,1-1.48,3.65,3.65,0,0,0,.41-1.5,1.16,1.16,0,0,0-.36-.88A1.32,1.32,0,0,0,813.11,357.73Z"/><path class="cls-2" d="M824.24,356.8c-.8,0-1.21.42-1.24,1.27l0,1.49c0,1.09-.44,1.64-1.3,1.64s-1.19-.7-1.19-2.1v-5.7a.19.19,0,0,0-.08-.17H823c.88,0,1.31-.39,1.31-1.18s-.42-1.12-1.26-1.12h-2.52s0,0,0,0v-2.47a1.08,1.08,0,0,0-1.22-1.22c-.87,0-1.3.41-1.3,1.22v2.5H817a1.15,1.15,0,0,0-.82.35,1.13,1.13,0,0,0-.35.8,1.1,1.1,0,0,0,.35.82,1.26,1.26,0,0,0,.89.33h.73s0,0,0,.17V359a5.78,5.78,0,0,0,.66,3.11,2.84,2.84,0,0,0,1.19,1,4.14,4.14,0,0,0,1.77.35,3.54,3.54,0,0,0,3.19-1.47,4.79,4.79,0,0,0,.54-1.48,10.93,10.93,0,0,0,.2-2.24C825.44,357.26,825,356.8,824.24,356.8Z"/><path class="cls-2" d="M832.66,361l-.28,0-.18.05,0,0-.36.07-.13,0c-.09,0-.17-.25-.21-.74a2.2,2.2,0,0,1,0-.45v-4.87c0-.31,0-.64,0-1,0-.13,0-.26,0-.38s0-.24,0-.36a6.48,6.48,0,0,1,0-.68v-.09a.49.49,0,0,1,0-.15v-.35c0-.81-.35-1.22-1.05-1.22l-.64.07-.3,0h-.21l-.3,0-.58-.08-.24,0h-.44c-1,0-1.42.37-1.42,1.1s.42,1.08,1.25,1.08l.25,0a.77.77,0,0,0,.28-.06l.3-.07.17,0c.14,0,.24.39.29,1.15v5.9q-.08,1.17-.27,1.17h-.14a.78.78,0,0,1-.27-.05l-.38-.05-.28,0q-1.2,0-1.2,1.08c0,.75.44,1.12,1.32,1.12a3.41,3.41,0,0,0,.5,0l.75-.08c.24,0,.47-.06.69-.07l.6,0a2.73,2.73,0,0,1,.44,0l.63.08.69.08.49,0a1.55,1.55,0,0,0,1-.32,1,1,0,0,0,.4-.8C833.93,361.34,833.51,361,832.66,361Z"/><path class="cls-2" d="M829.88,350.29a1.73,1.73,0,0,0,1.21-.46,1.53,1.53,0,0,0,.5-1.15,1.48,1.48,0,0,0-.5-1.14,1.76,1.76,0,0,0-1.21-.45,1.72,1.72,0,0,0-1.2.45,1.5,1.5,0,0,0-.49,1.14,1.56,1.56,0,0,0,.49,1.15A1.68,1.68,0,0,0,829.88,350.29Z"/><path class="cls-2" d="M841.64,363.45a1.78,1.78,0,0,0,1.79-1.27c.53-1.39,1.08-2.78,1.63-4.17s1.1-2.79,1.64-4.17c.24-.6.4-.91.46-.91l.39.08a.3.3,0,0,0,.2.05H848c.81,0,1.22-.37,1.22-1.1s-.47-1.08-1.4-1.08a9.16,9.16,0,0,0-1,.07L846,351l-.57,0h-.31l-.3,0-1-.15a.34.34,0,0,1-.17,0h-.24c-1,0-1.49.38-1.49,1.13s.38,1.1,1.15,1.1a2.48,2.48,0,0,0,.61-.07,2.26,2.26,0,0,1,.3-.08l.16,0c.06,0,.1.06.1.2a1.26,1.26,0,0,1-.05.24c0,.11-.08.27-.15.46l-2.27,6.24-2.32-6.24v0l-.14-.52a1.13,1.13,0,0,1-.08-.36l.44.1,0,0a1.73,1.73,0,0,0,.51.05c.85,0,1.27-.36,1.27-1.08s-.47-1.1-1.42-1.1h-.19a.69.69,0,0,0-.2,0l-.75.07a5,5,0,0,1-.64.05h-.94l-.47,0-.93-.1a.28.28,0,0,0-.16,0h-.18c-1,0-1.47.39-1.47,1.15s.39,1.06,1.17,1.06l.27,0a.89.89,0,0,0,.3-.06h0l.27,0a.42.42,0,0,0,.19,0c.1.05.22.27.37.66l3.32,8.56A1.75,1.75,0,0,0,841.64,363.45Z"/><path class="cls-2" d="M853.34,350.29a1.68,1.68,0,0,0,1.2-.46,1.5,1.5,0,0,0,.51-1.15,1.45,1.45,0,0,0-.51-1.14,1.83,1.83,0,0,0-2.4,0,1.47,1.47,0,0,0-.49,1.14,1.52,1.52,0,0,0,.49,1.15A1.68,1.68,0,0,0,853.34,350.29Z"/><path class="cls-2" d="M852.14,361.1H852a.77.77,0,0,1-.26-.05l-.38-.05-.28,0q-1.2,0-1.2,1.08c0,.75.44,1.12,1.32,1.12a3.41,3.41,0,0,0,.5,0l.74-.08c.25,0,.48-.06.7-.07l.6,0a2.73,2.73,0,0,1,.44,0l.63.08.69.08.48,0a1.56,1.56,0,0,0,1-.32,1,1,0,0,0,.4-.8c0-.72-.42-1.08-1.27-1.08l-.28,0-.18.05,0,0-.37.07-.12,0c-.1,0-.17-.25-.22-.74a4,4,0,0,1,0-.45v-4.87c0-.31,0-.64,0-1,0-.13,0-.26,0-.38s0-.24,0-.36a6.48,6.48,0,0,1,0-.68v-.09a.49.49,0,0,1,0-.15v-.35c0-.81-.35-1.22-1-1.22l-.64.07-.3,0h-.21l-.31,0-.57-.08-.24,0h-.44c-.95,0-1.42.37-1.42,1.1s.42,1.08,1.25,1.08l.25,0a.77.77,0,0,0,.28-.06l.3-.07.17,0c.14,0,.24.39.29,1.15v5.9Q852.34,361.1,852.14,361.1Z"/><path class="cls-2" d="M866.25,356.8c-.8,0-1.21.42-1.24,1.27l0,1.49c0,1.09-.43,1.64-1.3,1.64s-1.19-.7-1.19-2.1v-5.7a.19.19,0,0,0-.08-.17H865c.88,0,1.32-.39,1.32-1.18s-.43-1.12-1.27-1.12h-2.52s0,0,0,0v-2.47a1.08,1.08,0,0,0-1.22-1.22c-.87,0-1.3.41-1.3,1.22v2.5h-.9a1.15,1.15,0,0,0-.82.35,1.13,1.13,0,0,0-.35.8,1.1,1.1,0,0,0,.35.82,1.27,1.27,0,0,0,.89.33h.73s0,0,0,.17V359a5.78,5.78,0,0,0,.66,3.11,2.84,2.84,0,0,0,1.19,1,4.14,4.14,0,0,0,1.77.35,3.54,3.54,0,0,0,3.19-1.47,4.79,4.79,0,0,0,.54-1.48,10.93,10.93,0,0,0,.2-2.24C867.45,357.26,867.05,356.8,866.25,356.8Z"/><path class="cls-2" d="M881.75,350.88l-.52,0-.7.08-.66.06h-.79l-.33,0-.83-.13h-.1a.73.73,0,0,0-.22,0h-.17c-.91,0-1.37.37-1.37,1.11s.39,1.07,1.15,1.07h.2l.15,0h.21a1.64,1.64,0,0,1,.37-.05c.08,0,.12,0,.12.08a1.4,1.4,0,0,1-.07.41v0c-.39,1.12-.8,2.23-1.22,3.32s-.84,2.21-1.25,3.33l-2.27-6.77a.66.66,0,0,1-.07-.3h.16l.16,0a1.9,1.9,0,0,0,.25,0l.23,0c.85,0,1.27-.37,1.27-1.1s-.45-1.08-1.36-1.08c-.18,0-.52,0-1,.07-.31,0-.61.06-.9.08l-.84,0-.19,0h-.27l-.43-.06-.43-.07-.24,0h-.34c-1,0-1.47.37-1.47,1.1s.39,1.08,1.18,1.08c0,0,0,0,.2,0l.45-.06.21,0h.14c.13,0,.31.28.53.83l.1.33a1.74,1.74,0,0,0,.1.23.8.8,0,0,1,.07.2l2.54,6.43a7,7,0,0,1,.61,2,2.4,2.4,0,0,1-.88,1.81,2.67,2.67,0,0,1-1.93.83h-.4a.68.68,0,0,1-.3-.11,1.15,1.15,0,0,0,.46-1,1.31,1.31,0,0,0-.45-1,1.67,1.67,0,0,0-1.16-.4,1.81,1.81,0,0,0-1.38.55,2,2,0,0,0-.53,1.41,2.44,2.44,0,0,0,1.13,2,4.18,4.18,0,0,0,2.61.78,5.12,5.12,0,0,0,4.22-2.13,15.81,15.81,0,0,0,2-3.89l3.15-7.87c.24-.65.42-1,.54-1s0,0,.07,0a.2.2,0,0,0,.11,0l.13,0a1.28,1.28,0,0,0,.44,0c.77,0,1.15-.36,1.15-1.07S882.66,350.88,881.75,350.88Z"/><rect class="cls-2" x="584.38" y="297.26" width="1.95" height="42.3"/><rect class="cls-2" x="73.19" y="430.05" width="5.89" height="47.15"/><path class="cls-2" d="M133.17,457.48c0-6.45-2.41-13.15-12.32-13.15a20.27,20.27,0,0,0-10.64,2.85l1.33,3.85a16.28,16.28,0,0,1,8.44-2.39c6.63,0,7.36,4.79,7.36,7.44v.67c-12.52-.07-19.48,4.18-19.48,11.95,0,4.65,3.35,9.23,9.91,9.23a12.12,12.12,0,0,0,9.91-4.78h.2l.47,4.05h5.35a45,45,0,0,1-.53-7.7Zm-5.69,8.89a6,6,0,0,1-.34,1.86,8,8,0,0,1-7.83,5.38,5.19,5.19,0,0,1-5.56-5.57c0-6.25,7.3-7.38,13.73-7.24Z"/><path class="cls-2" d="M174.53,458.54c-4.22-1.59-6.16-2.79-6.16-5.45,0-2.39,1.94-4.38,5.42-4.38a12.67,12.67,0,0,1,6.63,1.86l1.47-4.25a16.33,16.33,0,0,0-8-2c-7,0-11.17,4.25-11.17,9.43,0,3.85,2.74,7,8.56,9.09,4.35,1.6,6,3.13,6,5.92s-2,4.78-6.29,4.78a15.52,15.52,0,0,1-7.77-2.33l-1.47,4.45a18.54,18.54,0,0,0,9.1,2.19c7.7,0,12.12-4,12.12-9.63C183,463.45,180.15,460.66,174.53,458.54Z"/><path class="cls-2" d="M228.27,444.33a12.14,12.14,0,0,0-6,1.66A10.84,10.84,0,0,0,218,450.1h-.13V430.05H212V477.2h5.89V457.81a6.94,6.94,0,0,1,.4-2.79,8.44,8.44,0,0,1,7.9-5.84c5.55,0,7.49,4.38,7.49,9.56V477.2h5.89V458.07C239.58,447,232.62,444.33,228.27,444.33Z"/><path class="cls-2" d="M308.79,469.56a4.19,4.19,0,0,0-.07,8.37,4.19,4.19,0,0,0,.07-8.37Z"/><path class="cls-2" d="M393.19,444.33a11.9,11.9,0,0,0-10.71,6h-.14l-.33-5.31h-5.22c.2,2.65.26,5.38.26,8.7V477.2h5.89V457.87a8.6,8.6,0,0,1,8.3-8.69c5.56,0,7.5,4.31,7.5,9.49V477.2h5.89V458C404.63,447,397.67,444.33,393.19,444.33Z"/><path class="cls-2" d="M458.38,457.48c0-6.45-2.41-13.15-12.32-13.15a20.27,20.27,0,0,0-10.64,2.85l1.33,3.85a16.28,16.28,0,0,1,8.44-2.39c6.63,0,7.36,4.79,7.36,7.44v.67c-12.52-.07-19.48,4.18-19.48,11.95,0,4.65,3.35,9.23,9.91,9.23a12.12,12.12,0,0,0,9.91-4.78h.2l.47,4.05h5.35a45,45,0,0,1-.53-7.7Zm-5.69,8.89a6,6,0,0,1-.34,1.86,8,8,0,0,1-7.83,5.38A5.19,5.19,0,0,1,439,468c0-6.25,7.3-7.38,13.73-7.24Z"/><path class="cls-2" d="M492.24,432.37a3.58,3.58,0,0,0-3.68,3.66,3.65,3.65,0,1,0,3.68-3.66Z"/><rect class="cls-2" x="489.29" y="445.06" width="5.89" height="32.14"/><rect class="cls-2" x="526.37" y="430.05" width="5.89" height="47.15"/><path class="cls-2" d="M574,458.54c-4.22-1.59-6.16-2.79-6.16-5.45,0-2.39,1.94-4.38,5.42-4.38a12.67,12.67,0,0,1,6.63,1.86l1.47-4.25a16.28,16.28,0,0,0-8-2c-7,0-11.18,4.25-11.18,9.43,0,3.85,2.74,7,8.57,9.09,4.35,1.6,6,3.13,6,5.92s-2,4.78-6.29,4.78a15.52,15.52,0,0,1-7.77-2.33l-1.47,4.45a18.59,18.59,0,0,0,9.1,2.19c7.7,0,12.12-4,12.12-9.63C582.53,463.45,579.65,460.66,574,458.54Z"/><path class="cls-2" d="M649.72,469.56a4.19,4.19,0,0,0-.06,8.37,4.19,4.19,0,0,0,.06-8.37Z"/><path class="cls-2" d="M750.92,461.2a94.69,94.69,0,0,0-2.47,10.42h-.2c-.74-3.25-1.68-6.64-2.88-10.49l-5-16.07h-5l-5.28,16.4c-1.07,3.45-2.14,6.91-2.88,10.16H727c-.6-3.32-1.47-6.64-2.41-10.23l-4.29-16.33h-6l9.77,32.14h5.36l5.22-15.27a94,94,0,0,0,2.94-10.63h.14a105.71,105.71,0,0,0,2.88,10.56l5,15.34h5.35l10.45-32.14h-5.83Z"/><path class="cls-2" d="M811.16,457.48c0-6.45-2.41-13.15-12.32-13.15a20.29,20.29,0,0,0-10.64,2.85l1.34,3.85a16.25,16.25,0,0,1,8.43-2.39c6.63,0,7.37,4.79,7.37,7.44v.67c-12.52-.07-19.48,4.18-19.48,11.95,0,4.65,3.34,9.23,9.9,9.23a12.12,12.12,0,0,0,9.91-4.78h.2l.47,4.05h5.36a44,44,0,0,1-.54-7.7Zm-5.69,8.89a6,6,0,0,1-.33,1.86,8.06,8.06,0,0,1-7.84,5.38,5.19,5.19,0,0,1-5.55-5.57c0-6.25,7.29-7.38,13.72-7.24Z"/><path class="cls-2" d="M867.05,445.06h-6.36l-4.55,6.84c-1.07,1.72-2.15,3.38-3.22,5.31h-.2c-1.07-1.79-2.07-3.45-3.28-5.25l-4.62-6.9h-6.56l11,15.74-11.51,16.4h6.49l4.69-7.24c1.2-1.92,2.34-3.65,3.41-5.58h.13c1.14,1.93,2.21,3.72,3.49,5.58l4.75,7.24h6.69L856,460.6Z"/></g></g></svg>